<svg xmlns="http://www.w3.org/2000/svg" xmlns:xlink="http://www.w3.org/1999/xlink" width="50" zoomAndPan="magnify" viewBox="0 0 37.5 37.499999" height="50" preserveAspectRatio="xMidYMid meet" version="1.0"><defs><clipPath id="09f6c638b3"><path d="M 10 12.410156 L 36.25 12.410156 L 36.25 35.371094 L 10 35.371094 Z M 10 12.410156 " clip-rule="nonzero"/></clipPath><clipPath id="9c4a7287a1"><path d="M 10 1.796875 L 36 1.796875 L 36 10 L 10 10 Z M 10 1.796875 " clip-rule="nonzero"/></clipPath><clipPath id="d921c7b226"><path d="M 1 1.796875 L 9 1.796875 L 9 10 L 1 10 Z M 1 1.796875 " clip-rule="nonzero"/></clipPath></defs><g clip-path="url(#09f6c638b3)"><path fill="#040606" d="M 24.292969 17.917969 C 27.394531 17.917969 29.9375 20.472656 29.9375 23.578125 C 29.9375 26.6875 27.453125 29.238281 24.292969 29.238281 C 21.132812 29.238281 18.644531 26.6875 18.644531 23.578125 C 18.644531 20.410156 21.191406 17.917969 24.292969 17.917969 Z M 11.851562 12.582031 C 11.066406 12.582031 10.4375 13.214844 10.4375 14.003906 L 10.4375 18.738281 C 10.4375 19.527344 11.066406 20.160156 11.851562 20.160156 L 17.726562 20.160156 C 17.25 21.078125 16.964844 22.101562 16.910156 23.191406 L 11.851562 23.191406 C 11.066406 23.191406 10.433594 23.824219 10.433594 24.613281 L 10.433594 29.347656 C 10.433594 30.136719 11.066406 30.769531 11.851562 30.769531 L 22.53125 30.769531 C 23.097656 30.910156 23.6875 30.988281 24.292969 30.988281 C 25.664062 30.988281 26.957031 30.589844 28.070312 29.9375 L 29.621094 31.496094 L 29.628906 31.5 L 32.941406 34.820312 C 33.347656 35.226562 33.847656 35.371094 34.308594 35.371094 C 34.796875 35.371094 35.320312 35.183594 35.683594 34.820312 C 36.4375 34.0625 36.4375 32.820312 35.683594 32.066406 L 32.28125 28.664062 L 30.753906 27.132812 C 31.347656 26.070312 31.6875 24.832031 31.6875 23.578125 C 31.6875 22.335938 31.382812 21.179688 30.855469 20.160156 L 33.988281 20.160156 C 34.773438 20.160156 35.40625 19.527344 35.40625 18.738281 L 35.40625 14.003906 C 35.40625 13.214844 34.773438 12.582031 33.988281 12.582031 L 11.851562 12.582031 " fill-opacity="1" fill-rule="nonzero"/></g><path fill="#040606" d="M 4.769531 25.078125 L 4.777344 25.078125 C 4.777344 25.078125 4.78125 25.078125 4.78125 25.078125 C 5.773438 25.078125 6.675781 25.984375 6.675781 26.980469 C 6.675781 27.976562 5.773438 28.882812 4.78125 28.882812 C 3.785156 28.882812 2.882812 27.976562 2.882812 26.980469 C 2.882812 25.984375 3.78125 25.078125 4.769531 25.078125 " fill-opacity="1" fill-rule="nonzero"/><path fill="#040606" d="M 4.769531 23.191406 C 2.6875 23.195312 1 24.890625 1 26.980469 C 1 29.074219 2.691406 30.769531 4.78125 30.769531 C 6.867188 30.769531 8.558594 29.074219 8.558594 26.980469 C 8.558594 24.886719 6.867188 23.191406 4.78125 23.191406 C 4.777344 23.191406 4.773438 23.191406 4.769531 23.191406 " fill-opacity="1" fill-rule="nonzero"/><path fill="#040606" d="M 4.769531 14.464844 L 4.773438 14.464844 C 4.773438 14.464844 4.777344 14.464844 4.777344 14.464844 C 4.777344 14.464844 4.78125 14.464844 4.78125 14.464844 C 5.773438 14.464844 6.675781 15.375 6.675781 16.371094 C 6.675781 17.367188 5.773438 18.273438 4.78125 18.273438 C 3.785156 18.273438 2.882812 17.367188 2.882812 16.371094 C 2.882812 15.375 3.78125 14.46875 4.769531 14.464844 " fill-opacity="1" fill-rule="nonzero"/><path fill="#040606" d="M 4.769531 12.582031 C 2.6875 12.585938 1 14.28125 1 16.371094 C 1 18.464844 2.691406 20.160156 4.78125 20.160156 C 6.867188 20.160156 8.558594 18.464844 8.558594 16.371094 C 8.558594 14.277344 6.867188 12.582031 4.78125 12.582031 C 4.777344 12.582031 4.773438 12.582031 4.769531 12.582031 " fill-opacity="1" fill-rule="nonzero"/><path fill="#040606" d="M 12.320312 3.855469 L 33.527344 3.855469 L 33.527344 7.664062 L 12.320312 7.664062 L 12.320312 3.855469 " fill-opacity="1" fill-rule="nonzero"/><path fill="#040606" d="M 4.769531 3.855469 L 4.773438 3.855469 C 4.773438 3.855469 4.777344 3.855469 4.777344 3.855469 C 4.777344 3.855469 4.78125 3.855469 4.78125 3.855469 C 5.773438 3.855469 6.675781 4.765625 6.675781 5.761719 C 6.675781 6.757812 5.773438 7.664062 4.78125 7.664062 C 3.785156 7.664062 2.882812 6.757812 2.882812 5.761719 C 2.882812 4.765625 3.78125 3.859375 4.769531 3.855469 " fill-opacity="1" fill-rule="nonzero"/><g clip-path="url(#9c4a7287a1)"><path fill="#040606" d="M 11.851562 1.972656 C 11.066406 1.972656 10.4375 2.605469 10.4375 3.394531 L 10.4375 8.128906 C 10.4375 8.917969 11.066406 9.550781 11.851562 9.550781 L 33.988281 9.550781 C 34.773438 9.550781 35.40625 8.917969 35.40625 8.128906 L 35.40625 3.394531 C 35.40625 2.605469 34.773438 1.972656 33.988281 1.972656 L 11.851562 1.972656 " fill-opacity="1" fill-rule="nonzero"/></g><g clip-path="url(#d921c7b226)"><path fill="#040606" d="M 4.769531 1.972656 C 2.6875 1.976562 1 3.671875 1 5.761719 C 1 7.855469 2.691406 9.550781 4.78125 9.550781 C 6.867188 9.550781 8.558594 7.855469 8.558594 5.761719 C 8.558594 3.667969 6.867188 1.972656 4.78125 1.972656 C 4.777344 1.972656 4.773438 1.972656 4.769531 1.972656 " fill-opacity="1" fill-rule="nonzero"/></g></svg>