<svg xmlns="http://www.w3.org/2000/svg" xmlns:xlink="http://www.w3.org/1999/xlink" width="50" zoomAndPan="magnify" viewBox="0 0 37.5 37.499999" height="50" preserveAspectRatio="xMidYMid meet" version="1.0"><defs><clipPath id="1e4ea2530d"><path d="M 3 5 L 28 5 L 28 37.007812 L 3 37.007812 Z M 3 5 " clip-rule="nonzero"/></clipPath><clipPath id="2f8bbff9b2"><path d="M 18 0 L 37.007812 0 L 37.007812 22 L 18 22 Z M 18 0 " clip-rule="nonzero"/></clipPath></defs><g clip-path="url(#1e4ea2530d)"><path fill="#000000" d="M 21.792969 18.75 L 19.375 18.75 C 19.375 16.890625 18.023438 15.355469 16.25 15.054688 L 16.25 11.179688 C 16.742188 11.082031 17.191406 10.871094 17.570312 10.574219 L 17.570312 10.570312 C 17.523438 10.175781 17.5 9.773438 17.5 9.375 C 17.5 8.238281 17.679688 7.144531 18.019531 6.113281 C 17.445312 5.429688 16.582031 5 15.625 5 C 13.898438 5 12.5 6.398438 12.5 8.125 C 12.5 9.636719 13.574219 10.898438 15 11.1875 L 15 15.054688 C 13.226562 15.355469 11.875 16.890625 11.875 18.75 L 5 18.75 C 4.3125 18.75 3.75 19.3125 3.75 20 L 3.75 36.25 C 3.75 36.9375 4.3125 37.5 5 37.5 L 26.25 37.5 C 26.9375 37.5 27.5 36.9375 27.5 36.25 L 27.5 20.550781 L 22.960938 23.144531 Z M 18.75 35 L 12.5 35 C 12.15625 35 11.875 34.71875 11.875 34.375 C 11.875 34.03125 12.15625 33.75 12.5 33.75 L 18.75 33.75 C 19.09375 33.75 19.375 34.03125 19.375 34.375 C 19.375 34.71875 19.09375 35 18.75 35 Z M 24.375 25.625 C 24.375 26.3125 24.09375 26.9375 23.644531 27.394531 C 23.1875 27.84375 22.5625 28.125 21.875 28.125 L 9.375 28.125 C 7.992188 28.125 6.875 27.007812 6.875 25.625 C 6.875 24.9375 7.15625 24.3125 7.605469 23.855469 C 8.0625 23.40625 8.6875 23.125 9.375 23.125 L 21.875 23.125 C 23.257812 23.125 24.375 24.242188 24.375 25.625 Z M 24.375 25.625 " fill-opacity="1" fill-rule="nonzero"/></g><path fill="#000000" d="M 28.75 24.085938 L 28.75 32.164062 C 30.21875 31.492188 31.25 29.9375 31.25 28.125 C 31.25 26.3125 30.21875 24.757812 28.75 24.085938 Z M 28.75 24.085938 " fill-opacity="1" fill-rule="nonzero"/><path fill="#000000" d="M 0 28.125 C 0 29.9375 1.03125 31.492188 2.5 32.164062 L 2.5 24.085938 C 1.03125 24.757812 0 26.3125 0 28.125 Z M 0 28.125 " fill-opacity="1" fill-rule="nonzero"/><path fill="#000000" d="M 11.875 25.625 C 11.875 25.796875 11.8125 25.945312 11.691406 26.066406 C 11.570312 26.1875 11.421875 26.25 11.25 26.25 C 11.078125 26.25 10.929688 26.1875 10.808594 26.066406 C 10.6875 25.945312 10.625 25.796875 10.625 25.625 C 10.625 25.453125 10.6875 25.304688 10.808594 25.183594 C 10.929688 25.0625 11.078125 25 11.25 25 C 11.421875 25 11.570312 25.0625 11.691406 25.183594 C 11.8125 25.304688 11.875 25.453125 11.875 25.625 Z M 11.875 25.625 " fill-opacity="1" fill-rule="nonzero"/><path fill="#000000" d="M 20.625 25.625 C 20.625 25.796875 20.5625 25.945312 20.441406 26.066406 C 20.320312 26.1875 20.171875 26.25 20 26.25 C 19.828125 26.25 19.679688 26.1875 19.558594 26.066406 C 19.4375 25.945312 19.375 25.796875 19.375 25.625 C 19.375 25.453125 19.4375 25.304688 19.558594 25.183594 C 19.679688 25.0625 19.828125 25 20 25 C 20.171875 25 20.320312 25.0625 20.441406 25.183594 C 20.5625 25.304688 20.625 25.453125 20.625 25.625 Z M 20.625 25.625 " fill-opacity="1" fill-rule="nonzero"/><g clip-path="url(#2f8bbff9b2)"><path fill="#000000" d="M 28.125 0 C 22.949219 0 18.75 4.199219 18.75 9.375 C 18.75 12.488281 20.269531 15.242188 22.605469 16.949219 L 23.75 21.25 L 28.125 18.75 C 33.300781 18.75 37.5 14.550781 37.5 9.375 C 37.5 4.199219 33.300781 0 28.125 0 Z M 28.125 15 C 27.78125 15 27.5 14.71875 27.5 14.375 C 27.5 14.03125 27.78125 13.75 28.125 13.75 C 28.46875 13.75 28.75 14.03125 28.75 14.375 C 28.75 14.71875 28.46875 15 28.125 15 Z M 28.75 9.9375 L 28.75 11.875 C 28.75 12.21875 28.46875 12.5 28.125 12.5 C 27.78125 12.5 27.5 12.21875 27.5 11.875 L 27.5 9.375 C 27.5 9.03125 27.78125 8.75 28.125 8.75 C 29.160156 8.75 30 7.910156 30 6.875 C 30 5.839844 29.160156 5 28.125 5 C 27.089844 5 26.25 5.839844 26.25 6.875 C 26.25 7.21875 25.96875 7.5 25.625 7.5 C 25.28125 7.5 25 7.21875 25 6.875 C 25 5.152344 26.402344 3.75 28.125 3.75 C 29.847656 3.75 31.25 5.152344 31.25 6.875 C 31.25 8.382812 30.175781 9.648438 28.75 9.9375 Z M 28.75 9.9375 " fill-opacity="1" fill-rule="nonzero"/></g></svg>