<svg xmlns="http://www.w3.org/2000/svg" xmlns:xlink="http://www.w3.org/1999/xlink" width="50" zoomAndPan="magnify" viewBox="0 0 37.5 37.499999" height="50" preserveAspectRatio="xMidYMid meet" version="1.0"><defs><clipPath id="f775c13876"><path d="M 0.585938 34 L 6 34 L 6 37.007812 L 0.585938 37.007812 Z M 0.585938 34 " clip-rule="nonzero"/></clipPath><clipPath id="e0dfe1581b"><path d="M 6 34 L 12 34 L 12 37.007812 L 6 37.007812 Z M 6 34 " clip-rule="nonzero"/></clipPath><clipPath id="a2facabdd4"><path d="M 13 34 L 18 34 L 18 37.007812 L 13 37.007812 Z M 13 34 " clip-rule="nonzero"/></clipPath><clipPath id="d08a06d88c"><path d="M 19 34 L 24 34 L 24 37.007812 L 19 37.007812 Z M 19 34 " clip-rule="nonzero"/></clipPath><clipPath id="8db99ebb02"><path d="M 25 34 L 31 34 L 31 37.007812 L 25 37.007812 Z M 25 34 " clip-rule="nonzero"/></clipPath><clipPath id="7d218fb970"><path d="M 32 34 L 36.585938 34 L 36.585938 37.007812 L 32 37.007812 Z M 32 34 " clip-rule="nonzero"/></clipPath><clipPath id="57f62ec2b6"><path d="M 32 30 L 36.585938 30 L 36.585938 35 L 32 35 Z M 32 30 " clip-rule="nonzero"/></clipPath><clipPath id="791d714bb1"><path d="M 5 0.242188 L 32 0.242188 L 32 14 L 5 14 Z M 5 0.242188 " clip-rule="nonzero"/></clipPath></defs><path fill="#000000" d="M 8.160156 27.851562 C 8.160156 27.242188 7.671875 26.75 7.074219 26.75 L 4.824219 26.75 C 4.222656 26.75 3.734375 27.242188 3.734375 27.851562 L 3.734375 29.871094 L 8.160156 29.871094 Z M 8.160156 27.851562 " fill-opacity="1" fill-rule="nonzero"/><path fill="#000000" d="M 7.660156 24.652344 C 7.660156 24.882812 7.617188 25.105469 7.53125 25.316406 C 7.441406 25.53125 7.320312 25.71875 7.160156 25.882812 C 6.996094 26.042969 6.8125 26.167969 6.601562 26.257812 C 6.394531 26.347656 6.175781 26.390625 5.949219 26.390625 C 5.71875 26.390625 5.503906 26.347656 5.292969 26.257812 C 5.082031 26.167969 4.898438 26.042969 4.738281 25.882812 C 4.578125 25.71875 4.453125 25.53125 4.367188 25.316406 C 4.277344 25.105469 4.234375 24.882812 4.234375 24.652344 C 4.234375 24.421875 4.277344 24.199219 4.367188 23.988281 C 4.453125 23.773438 4.578125 23.585938 4.738281 23.421875 C 4.898438 23.257812 5.082031 23.132812 5.292969 23.046875 C 5.503906 22.957031 5.71875 22.914062 5.949219 22.914062 C 6.175781 22.914062 6.394531 22.957031 6.601562 23.046875 C 6.8125 23.132812 6.996094 23.257812 7.160156 23.421875 C 7.320312 23.585938 7.441406 23.773438 7.53125 23.988281 C 7.617188 24.199219 7.660156 24.421875 7.660156 24.652344 Z M 7.660156 24.652344 " fill-opacity="1" fill-rule="nonzero"/><path fill="#000000" d="M 12.265625 22.914062 C 12.257812 22.914062 12.25 22.914062 12.242188 22.914062 C 11.296875 22.914062 10.53125 23.691406 10.53125 24.652344 C 10.53125 25.613281 11.300781 26.390625 12.242188 26.390625 C 12.253906 26.390625 12.257812 26.386719 12.265625 26.386719 C 12.273438 26.386719 12.28125 26.390625 12.292969 26.390625 C 13.238281 26.390625 14.003906 25.613281 14.003906 24.652344 C 14.003906 23.691406 13.238281 22.914062 12.292969 22.914062 C 12.28125 22.914062 12.273438 22.914062 12.265625 22.914062 Z M 12.265625 22.914062 " fill-opacity="1" fill-rule="nonzero"/><path fill="#000000" d="M 14.503906 29.871094 L 14.503906 27.851562 C 14.503906 27.242188 14.015625 26.75 13.414062 26.75 L 11.121094 26.75 C 10.519531 26.75 10.03125 27.242188 10.03125 27.851562 L 10.03125 29.871094 Z M 14.503906 29.871094 " fill-opacity="1" fill-rule="nonzero"/><path fill="#000000" d="M 20.800781 29.871094 L 20.800781 27.851562 C 20.800781 27.242188 20.3125 26.75 19.710938 26.75 L 17.464844 26.75 C 16.863281 26.75 16.375 27.242188 16.375 27.851562 L 16.375 29.871094 Z M 20.800781 29.871094 " fill-opacity="1" fill-rule="nonzero"/><path fill="#000000" d="M 17.921875 23.050781 C 17.304688 23.3125 16.875 23.933594 16.875 24.652344 C 16.875 25.371094 17.304688 25.992188 17.921875 26.253906 C 18.125 26.339844 18.351562 26.390625 18.585938 26.390625 L 18.589844 26.390625 C 19.535156 26.390625 20.300781 25.613281 20.300781 24.652344 C 20.300781 23.691406 19.535156 22.914062 18.585938 22.914062 C 18.351562 22.914062 18.125 22.960938 17.921875 23.050781 Z M 17.921875 23.050781 " fill-opacity="1" fill-rule="nonzero"/><path fill="#000000" d="M 27.140625 29.871094 L 27.140625 27.851562 C 27.140625 27.242188 26.65625 26.75 26.058594 26.75 L 23.761719 26.75 C 23.160156 26.75 22.671875 27.242188 22.671875 27.851562 L 22.671875 29.871094 Z M 27.140625 29.871094 " fill-opacity="1" fill-rule="nonzero"/><path fill="#000000" d="M 30.105469 26.75 C 29.503906 26.75 29.015625 27.242188 29.015625 27.851562 L 29.015625 29.871094 L 33.4375 29.871094 L 33.4375 27.851562 C 33.4375 27.242188 32.953125 26.75 32.351562 26.75 Z M 30.105469 26.75 " fill-opacity="1" fill-rule="nonzero"/><path fill="#000000" d="M 24.933594 22.914062 C 24.925781 22.914062 24.917969 22.914062 24.910156 22.914062 C 24.898438 22.914062 24.894531 22.914062 24.882812 22.914062 C 23.9375 22.914062 23.171875 23.691406 23.171875 24.652344 C 23.171875 25.613281 23.9375 26.390625 24.882812 26.390625 C 24.894531 26.390625 24.898438 26.386719 24.910156 26.386719 C 24.917969 26.386719 24.925781 26.390625 24.933594 26.390625 C 25.878906 26.390625 26.644531 25.613281 26.644531 24.652344 C 26.644531 23.691406 25.878906 22.914062 24.933594 22.914062 Z M 24.933594 22.914062 " fill-opacity="1" fill-rule="nonzero"/><path fill="#000000" d="M 32.941406 24.652344 C 32.941406 24.882812 32.898438 25.105469 32.808594 25.316406 C 32.722656 25.53125 32.597656 25.71875 32.4375 25.882812 C 32.277344 26.042969 32.09375 26.167969 31.882812 26.257812 C 31.671875 26.347656 31.457031 26.390625 31.226562 26.390625 C 31 26.390625 30.78125 26.347656 30.574219 26.257812 C 30.363281 26.167969 30.179688 26.042969 30.015625 25.882812 C 29.855469 25.71875 29.734375 25.53125 29.644531 25.316406 C 29.558594 25.105469 29.515625 24.882812 29.515625 24.652344 C 29.515625 24.421875 29.558594 24.199219 29.644531 23.988281 C 29.734375 23.773438 29.855469 23.585938 30.015625 23.421875 C 30.179688 23.257812 30.363281 23.132812 30.574219 23.046875 C 30.78125 22.957031 31 22.914062 31.226562 22.914062 C 31.457031 22.914062 31.671875 22.957031 31.882812 23.046875 C 32.09375 23.132812 32.277344 23.257812 32.4375 23.421875 C 32.597656 23.585938 32.722656 23.773438 32.808594 23.988281 C 32.898438 24.199219 32.941406 24.421875 32.941406 24.652344 Z M 32.941406 24.652344 " fill-opacity="1" fill-rule="nonzero"/><g clip-path="url(#f775c13876)"><path fill="#000000" d="M 3.925781 34.515625 L 1.675781 34.515625 C 1.074219 34.515625 0.585938 35.011719 0.585938 35.621094 L 0.585938 37.640625 L 5.011719 37.640625 L 5.011719 35.621094 C 5.011719 35.011719 4.523438 34.515625 3.925781 34.515625 Z M 3.925781 34.515625 " fill-opacity="1" fill-rule="nonzero"/></g><path fill="#000000" d="M 4.511719 32.421875 C 4.511719 32.652344 4.46875 32.871094 4.382812 33.085938 C 4.292969 33.300781 4.171875 33.488281 4.011719 33.648438 C 3.851562 33.8125 3.664062 33.9375 3.453125 34.027344 C 3.246094 34.117188 3.027344 34.160156 2.800781 34.160156 C 2.570312 34.160156 2.355469 34.117188 2.144531 34.027344 C 1.933594 33.9375 1.75 33.8125 1.589844 33.648438 C 1.425781 33.488281 1.304688 33.300781 1.21875 33.085938 C 1.128906 32.871094 1.085938 32.652344 1.085938 32.421875 C 1.085938 32.191406 1.128906 31.96875 1.21875 31.753906 C 1.304688 31.542969 1.425781 31.355469 1.589844 31.191406 C 1.75 31.027344 1.933594 30.902344 2.144531 30.8125 C 2.355469 30.726562 2.570312 30.679688 2.800781 30.679688 C 3.027344 30.679688 3.246094 30.726562 3.453125 30.8125 C 3.664062 30.902344 3.851562 31.027344 4.011719 31.191406 C 4.171875 31.355469 4.292969 31.542969 4.382812 31.753906 C 4.46875 31.96875 4.511719 32.191406 4.511719 32.421875 Z M 4.511719 32.421875 " fill-opacity="1" fill-rule="nonzero"/><path fill="#000000" d="M 9.117188 30.683594 C 9.113281 30.683594 9.105469 30.679688 9.09375 30.679688 C 8.148438 30.679688 7.382812 31.460938 7.382812 32.421875 C 7.382812 33.382812 8.148438 34.160156 9.09375 34.160156 C 9.105469 34.160156 9.113281 34.15625 9.117188 34.15625 C 9.128906 34.15625 9.136719 34.160156 9.140625 34.160156 C 10.089844 34.160156 10.855469 33.382812 10.855469 32.421875 C 10.855469 31.460938 10.089844 30.679688 9.140625 30.679688 C 9.132812 30.679688 9.128906 30.683594 9.117188 30.683594 Z M 9.117188 30.683594 " fill-opacity="1" fill-rule="nonzero"/><g clip-path="url(#e0dfe1581b)"><path fill="#000000" d="M 10.265625 34.515625 L 7.972656 34.515625 C 7.371094 34.515625 6.882812 35.011719 6.882812 35.621094 L 6.882812 37.640625 L 11.355469 37.640625 L 11.355469 35.621094 C 11.355469 35.011719 10.867188 34.515625 10.265625 34.515625 Z M 10.265625 34.515625 " fill-opacity="1" fill-rule="nonzero"/></g><g clip-path="url(#a2facabdd4)"><path fill="#000000" d="M 16.5625 34.515625 L 14.316406 34.515625 C 13.714844 34.515625 13.226562 35.011719 13.226562 35.621094 L 13.226562 37.640625 L 17.652344 37.640625 L 17.652344 35.621094 C 17.652344 35.011719 17.164062 34.515625 16.5625 34.515625 Z M 16.5625 34.515625 " fill-opacity="1" fill-rule="nonzero"/></g><path fill="#000000" d="M 14.773438 34.023438 C 14.976562 34.109375 15.203125 34.160156 15.4375 34.160156 C 16.386719 34.160156 17.152344 33.382812 17.152344 32.421875 C 17.152344 31.460938 16.386719 30.679688 15.4375 30.679688 C 15.203125 30.679688 14.976562 30.730469 14.773438 30.816406 C 14.160156 31.082031 13.726562 31.699219 13.726562 32.421875 C 13.726562 33.140625 14.15625 33.757812 14.773438 34.023438 Z M 14.773438 34.023438 " fill-opacity="1" fill-rule="nonzero"/><path fill="#000000" d="M 21.738281 34.160156 C 21.746094 34.160156 21.753906 34.15625 21.761719 34.15625 C 21.769531 34.15625 21.777344 34.160156 21.785156 34.160156 C 22.730469 34.160156 23.496094 33.382812 23.496094 32.421875 C 23.496094 31.457031 22.730469 30.679688 21.785156 30.679688 C 21.777344 30.679688 21.769531 30.683594 21.761719 30.683594 C 21.753906 30.683594 21.746094 30.679688 21.738281 30.679688 C 20.789062 30.679688 20.023438 31.457031 20.023438 32.421875 C 20.023438 33.382812 20.789062 34.160156 21.738281 34.160156 Z M 21.738281 34.160156 " fill-opacity="1" fill-rule="nonzero"/><g clip-path="url(#d08a06d88c)"><path fill="#000000" d="M 22.910156 34.515625 L 20.613281 34.515625 C 20.011719 34.515625 19.523438 35.011719 19.523438 35.621094 L 19.523438 37.640625 L 23.996094 37.640625 L 23.996094 35.621094 C 23.996094 35.011719 23.507812 34.515625 22.910156 34.515625 Z M 22.910156 34.515625 " fill-opacity="1" fill-rule="nonzero"/></g><path fill="#000000" d="M 28.03125 34.160156 C 28.039062 34.160156 28.046875 34.15625 28.054688 34.15625 C 28.066406 34.15625 28.070312 34.160156 28.078125 34.160156 C 29.027344 34.160156 29.792969 33.382812 29.792969 32.421875 C 29.792969 31.460938 29.027344 30.679688 28.078125 30.679688 C 28.070312 30.679688 28.066406 30.683594 28.054688 30.683594 C 28.046875 30.683594 28.039062 30.679688 28.03125 30.679688 C 27.089844 30.679688 26.320312 31.460938 26.320312 32.421875 C 26.320312 33.382812 27.089844 34.160156 28.03125 34.160156 Z M 28.03125 34.160156 " fill-opacity="1" fill-rule="nonzero"/><g clip-path="url(#8db99ebb02)"><path fill="#000000" d="M 29.203125 34.515625 L 26.90625 34.515625 C 26.308594 34.515625 25.820312 35.011719 25.820312 35.621094 L 25.820312 37.640625 L 30.292969 37.640625 L 30.292969 35.621094 C 30.292969 35.011719 29.804688 34.515625 29.203125 34.515625 Z M 29.203125 34.515625 " fill-opacity="1" fill-rule="nonzero"/></g><g clip-path="url(#7d218fb970)"><path fill="#000000" d="M 35.5 34.515625 L 33.253906 34.515625 C 32.652344 34.515625 32.164062 35.011719 32.164062 35.621094 L 32.164062 37.640625 L 36.585938 37.640625 L 36.585938 35.621094 C 36.585938 35.011719 36.101562 34.515625 35.5 34.515625 Z M 35.5 34.515625 " fill-opacity="1" fill-rule="nonzero"/></g><g clip-path="url(#57f62ec2b6)"><path fill="#000000" d="M 36.089844 32.421875 C 36.089844 32.652344 36.046875 32.875 35.957031 33.085938 C 35.871094 33.300781 35.746094 33.488281 35.585938 33.648438 C 35.425781 33.8125 35.242188 33.9375 35.03125 34.027344 C 34.820312 34.117188 34.601562 34.160156 34.375 34.160156 C 34.148438 34.160156 33.929688 34.117188 33.722656 34.027344 C 33.511719 33.9375 33.324219 33.8125 33.164062 33.648438 C 33.003906 33.488281 32.882812 33.300781 32.792969 33.085938 C 32.707031 32.875 32.664062 32.652344 32.664062 32.421875 C 32.664062 32.191406 32.707031 31.96875 32.792969 31.753906 C 32.882812 31.542969 33.003906 31.355469 33.164062 31.191406 C 33.324219 31.027344 33.511719 30.902344 33.722656 30.816406 C 33.929688 30.726562 34.148438 30.683594 34.375 30.683594 C 34.601562 30.683594 34.820312 30.726562 35.03125 30.816406 C 35.242188 30.902344 35.425781 31.027344 35.585938 31.191406 C 35.746094 31.355469 35.871094 31.542969 35.957031 31.753906 C 36.046875 31.96875 36.089844 32.191406 36.089844 32.421875 Z M 36.089844 32.421875 " fill-opacity="1" fill-rule="nonzero"/></g><g clip-path="url(#791d714bb1)"><path fill="#000000" d="M 14.691406 10.957031 L 15.863281 11.949219 L 15.863281 13.175781 L 16.027344 13.207031 L 16.027344 13.957031 L 21.148438 13.957031 L 21.148438 13.207031 L 21.308594 13.175781 L 21.308594 11.949219 L 22.480469 10.957031 C 22.429688 10.855469 22.375 10.722656 22.316406 10.578125 L 31.3125 10.578125 L 31.3125 0.394531 L 5.863281 0.394531 L 5.863281 10.578125 L 14.859375 10.578125 C 14.800781 10.722656 14.742188 10.855469 14.691406 10.957031 Z M 18.402344 13.464844 L 16.050781 13.019531 L 16.050781 11.996094 L 16.054688 11.996094 C 16.09375 12.015625 16.136719 12.023438 16.183594 12.03125 L 16.191406 12.03125 C 16.207031 12.03125 16.222656 12.035156 16.234375 12.035156 C 16.488281 12.035156 16.695312 11.828125 16.695312 11.570312 C 16.695312 11.3125 16.488281 11.105469 16.234375 11.105469 L 16.09375 10.578125 L 16.890625 10.578125 L 18.402344 10.863281 Z M 21.125 13.019531 L 18.773438 13.464844 L 18.773438 10.863281 L 20.285156 10.578125 L 21.082031 10.578125 L 20.9375 11.105469 C 20.683594 11.105469 20.480469 11.3125 20.480469 11.570312 C 20.480469 11.828125 20.6875 12.035156 20.9375 12.035156 C 20.953125 12.035156 20.96875 12.03125 20.980469 12.03125 L 20.992188 12.03125 C 21.035156 12.023438 21.078125 12.015625 21.121094 11.996094 L 21.125 11.996094 Z M 6.398438 10.121094 L 6.3125 10.121094 L 6.3125 0.851562 L 30.863281 0.851562 L 30.863281 10.121094 L 29.777344 10.121094 L 29.777344 9.097656 L 27.125 9.097656 L 27.125 10.121094 L 22.144531 10.121094 C 21.917969 9.496094 21.703125 8.8125 21.675781 8.734375 L 21.671875 8.726562 C 21.570312 8.382812 21.117188 8.332031 21.097656 8.332031 L 18.585938 8.328125 L 16.078125 8.332031 C 16.058594 8.332031 15.605469 8.382812 15.503906 8.726562 L 15.5 8.734375 C 15.46875 8.8125 15.257812 9.496094 15.03125 10.121094 Z M 6.398438 10.121094 " fill-opacity="1" fill-rule="nonzero"/></g><path fill="#000000" d="M 27.332031 14.183594 L 9.84375 14.183594 L 9.84375 16.570312 L 11.003906 16.570312 L 11.003906 22 L 12.871094 22 L 12.871094 21.007812 L 24.300781 21.007812 L 24.300781 22 L 26.171875 22 L 26.171875 16.570312 L 27.332031 16.570312 Z M 27.332031 14.183594 " fill-opacity="1" fill-rule="nonzero"/><path fill="#000000" d="M 20.515625 6.191406 C 20.515625 6.453125 20.46875 6.703125 20.371094 6.941406 C 20.273438 7.183594 20.132812 7.394531 19.953125 7.578125 C 19.769531 7.761719 19.5625 7.902344 19.324219 8.003906 C 19.089844 8.101562 18.84375 8.152344 18.585938 8.152344 C 18.332031 8.152344 18.085938 8.101562 17.847656 8.003906 C 17.613281 7.902344 17.40625 7.761719 17.222656 7.578125 C 17.042969 7.394531 16.902344 7.183594 16.804688 6.941406 C 16.707031 6.703125 16.660156 6.453125 16.660156 6.191406 C 16.660156 5.933594 16.707031 5.683594 16.804688 5.445312 C 16.902344 5.203125 17.042969 4.992188 17.222656 4.808594 C 17.40625 4.625 17.613281 4.484375 17.847656 4.382812 C 18.085938 4.285156 18.332031 4.234375 18.585938 4.234375 C 18.84375 4.234375 19.089844 4.285156 19.324219 4.382812 C 19.5625 4.484375 19.769531 4.625 19.953125 4.808594 C 20.132812 4.992188 20.273438 5.203125 20.371094 5.445312 C 20.46875 5.683594 20.515625 5.933594 20.515625 6.191406 Z M 20.515625 6.191406 " fill-opacity="1" fill-rule="nonzero"/></svg>