<svg xmlns="http://www.w3.org/2000/svg" xmlns:xlink="http://www.w3.org/1999/xlink" width="50" zoomAndPan="magnify" viewBox="0 0 37.5 37.499999" height="50" preserveAspectRatio="xMidYMid meet" version="1.0"><defs><clipPath id="2464dd3906"><path d="M 0 0 L 37.007812 0 L 37.007812 37.007812 L 0 37.007812 Z M 0 0 " clip-rule="nonzero"/></clipPath></defs><g clip-path="url(#2464dd3906)"><path fill="#000000" d="M 37.5 0 L 37.5 37.5 L 32.101562 37.5 L 32.101562 31.644531 C 29.402344 31.644531 26.839844 29.878906 25.953125 27.417969 L 29.261719 25.503906 L 25.625 24.53125 L 25.625 22.65625 L 22.289062 22.65625 C 21.445312 22.65625 20.9375 21.746094 21.335938 21.015625 L 25.625 13.144531 C 25.625 6.089844 30.292969 0.652344 37.5 0 Z M 0 0 L 7.707031 0 C 8.707031 0.316406 9.429688 1.25 9.429688 2.347656 L 9.429688 16.289062 C 9.429688 17.644531 8.324219 18.75 6.96875 18.75 L 0 18.75 L 0 13.839844 L 3.273438 13.839844 C 3.578125 13.839844 3.820312 13.597656 3.820312 13.292969 C 3.820312 12.992188 3.578125 12.746094 3.273438 12.746094 L 0 12.746094 Z M 6.796875 22.765625 L 7.867188 26.765625 C 8.011719 27.292969 8.753906 27.300781 8.917969 26.785156 L 12.183594 18.589844 L 13.578125 31.144531 C 13.640625 31.714844 14.4375 31.808594 14.632812 31.273438 L 17.945312 22.359375 L 18.96875 26.191406 C 19.035156 26.433594 19.257812 26.59375 19.5 26.59375 L 24.066406 26.59375 C 24.371094 26.59375 24.613281 26.351562 24.613281 26.046875 C 24.613281 25.746094 24.371094 25.5 24.066406 25.5 L 19.917969 25.5 L 18.5625 20.445312 C 18.449219 19.917969 17.707031 19.855469 17.515625 20.371094 L 14.410156 28.734375 L 13.027344 16.304688 C 12.964844 15.746094 12.1875 15.632812 11.980469 16.160156 L 8.5 24.894531 L 7.851562 22.484375 C 7.773438 22.191406 7.476562 22.019531 7.183594 22.097656 C 6.890625 22.175781 6.71875 22.476562 6.796875 22.765625 Z M 15.660156 9.585938 C 15.449219 9.800781 15.101562 9.800781 14.886719 9.585938 C 14.675781 9.371094 14.675781 9.027344 14.886719 8.8125 C 15.277344 8.421875 15.488281 7.914062 15.488281 7.363281 C 15.488281 6.808594 15.277344 6.300781 14.886719 5.910156 C 14.675781 5.699219 14.675781 5.351562 14.886719 5.136719 C 15.101562 4.925781 15.449219 4.925781 15.660156 5.136719 C 16.25 5.726562 16.582031 6.53125 16.582031 7.363281 C 16.582031 8.191406 16.25 9 15.660156 9.585938 Z M 16.601562 4.195312 C 17.449219 5.042969 17.914062 6.164062 17.914062 7.363281 C 17.914062 8.558594 17.449219 9.679688 16.601562 10.527344 C 16.390625 10.738281 16.390625 11.085938 16.601562 11.300781 C 16.816406 11.511719 17.164062 11.511719 17.375 11.300781 C 18.417969 10.257812 19.007812 8.835938 19.007812 7.363281 C 19.007812 5.886719 18.417969 4.46875 17.375 3.421875 C 17.164062 3.210938 16.816406 3.210938 16.601562 3.421875 C 16.390625 3.636719 16.390625 3.984375 16.601562 4.195312 Z M 4.589844 4.796875 C 3.230469 4.796875 2.128906 5.898438 2.128906 7.257812 C 2.128906 8.617188 3.230469 9.71875 4.589844 9.71875 C 5.949219 9.71875 7.054688 8.617188 7.054688 7.257812 C 7.054688 5.898438 5.949219 4.796875 4.589844 4.796875 Z M 4.589844 5.890625 C 3.835938 5.890625 3.222656 6.5 3.222656 7.257812 C 3.222656 8.011719 3.835938 8.625 4.589844 8.625 C 5.347656 8.625 5.960938 8.011719 5.960938 7.257812 C 5.960938 6.5 5.347656 5.890625 4.589844 5.890625 Z M 10.523438 4.855469 L 11.34375 4.855469 C 12.015625 4.855469 12.566406 5.40625 12.566406 6.078125 L 12.566406 8.644531 C 12.566406 9.316406 12.015625 9.867188 11.34375 9.867188 L 10.523438 9.867188 Z M 10.523438 4.855469 " fill-opacity="1" fill-rule="evenodd"/></g></svg>