<svg xmlns="http://www.w3.org/2000/svg" xmlns:xlink="http://www.w3.org/1999/xlink" width="50" zoomAndPan="magnify" viewBox="0 0 37.5 37.499999" height="50" preserveAspectRatio="xMidYMid meet" version="1.0"><defs><clipPath id="a3c373710c"><path d="M 0 0.726562 L 37.007812 0.726562 L 37.007812 36.726562 L 0 36.726562 Z M 0 0.726562 " clip-rule="nonzero"/></clipPath></defs><g clip-path="url(#a3c373710c)"><path fill="#000000" d="M 34.175781 36.726562 L 3.324219 36.726562 C 1.492188 36.726562 0.00390625 35.238281 0.00390625 33.410156 L 0.00390625 4.042969 C 0.00390625 2.214844 1.492188 0.726562 3.324219 0.726562 L 34.175781 0.726562 C 36.003906 0.726562 37.496094 2.214844 37.496094 4.042969 L 37.496094 33.410156 C 37.496094 35.238281 36.007812 36.726562 34.175781 36.726562 Z M 32.078125 5.214844 L 22.601562 5.214844 C 22.03125 5.214844 22.03125 4.351562 22.601562 4.351562 L 32.078125 4.351562 C 32.648438 4.351562 32.648438 5.214844 32.078125 5.214844 Z M 13.890625 5.742188 C 13.308594 5.742188 13.457031 4.945312 13.457031 4.253906 C 13.457031 3.6875 14.320312 3.6875 14.320312 4.253906 C 14.320312 4.945312 14.472656 5.742188 13.890625 5.742188 Z M 9.65625 5.742188 C 9.074219 5.742188 9.222656 4.945312 9.222656 4.253906 C 9.222656 3.6875 10.085938 3.6875 10.085938 4.253906 C 10.085938 4.945312 10.238281 5.742188 9.65625 5.742188 Z M 5.417969 5.742188 C 4.839844 5.742188 4.988281 4.945312 4.988281 4.253906 C 4.988281 3.6875 5.851562 3.6875 5.851562 4.253906 C 5.851562 4.945312 6 5.742188 5.417969 5.742188 Z M 35.914062 8.480469 L 1.582031 8.480469 L 1.582031 33.410156 C 1.582031 34.367188 2.363281 35.148438 3.324219 35.148438 L 34.175781 35.148438 C 35.132812 35.148438 35.914062 34.367188 35.914062 33.410156 Z M 35.914062 8.480469 " fill-opacity="1" fill-rule="evenodd"/></g><path fill="#000000" d="M 31 28.199219 L 6.5 28.199219 C 5.460938 28.199219 5.460938 26.621094 6.5 26.621094 L 31 26.621094 C 32.039062 26.621094 32.039062 28.199219 31 28.199219 Z M 31 31.542969 L 6.5 31.542969 C 5.460938 31.542969 5.460938 29.964844 6.5 29.964844 L 31 29.964844 C 32.039062 29.964844 32.039062 31.542969 31 31.542969 Z M 31 31.542969 " fill-opacity="1" fill-rule="evenodd"/><path fill="#000000" d="M 18.742188 19.195312 L 9.367188 15.898438 C 8.984375 15.765625 8.984375 15.222656 9.367188 15.089844 L 18.597656 11.816406 C 18.691406 11.78125 18.792969 11.78125 18.886719 11.816406 L 28.121094 15.089844 C 28.503906 15.222656 28.503906 15.765625 28.121094 15.898438 Z M 18.742188 19.195312 " fill-opacity="1" fill-rule="evenodd"/><path fill="#000000" d="M 23.558594 23.671875 L 13.929688 23.671875 C 13.109375 23.671875 12.445312 22.949219 12.445312 22.0625 L 12.445312 17.742188 L 18.742188 19.957031 L 25.042969 17.742188 L 25.042969 22.0625 C 25.042969 22.949219 24.375 23.671875 23.558594 23.671875 Z M 23.558594 23.671875 " fill-opacity="1" fill-rule="evenodd"/><path fill="#000000" d="M 27.984375 19.394531 C 27.746094 19.394531 27.554688 19.203125 27.554688 18.964844 L 27.554688 15.582031 C 27.554688 15.015625 28.417969 15.015625 28.417969 15.582031 L 28.417969 18.964844 C 28.417969 19.203125 28.222656 19.394531 27.984375 19.394531 Z M 27.984375 19.394531 " fill-opacity="1" fill-rule="evenodd"/><path fill="#000000" d="M 27.984375 21.355469 C 26.125 21.355469 26.125 18.535156 27.984375 18.535156 C 29.84375 18.535156 29.84375 21.355469 27.984375 21.355469 Z M 27.984375 21.355469 " fill-opacity="1" fill-rule="evenodd"/></svg>