<svg xmlns="http://www.w3.org/2000/svg" xmlns:xlink="http://www.w3.org/1999/xlink" width="50" zoomAndPan="magnify" viewBox="0 0 37.5 37.499999" height="50" preserveAspectRatio="xMidYMid meet" version="1.0"><defs><clipPath id="853d096fd0"><path d="M 2.015625 0 L 37.007812 0 L 37.007812 37.007812 L 2.015625 37.007812 Z M 2.015625 0 " clip-rule="nonzero"/></clipPath></defs><g clip-path="url(#853d096fd0)"><path fill="#000000" d="M 20.171875 33.945312 C 19.773438 34.09375 19.421875 34.015625 19.117188 33.710938 C 18.816406 33.40625 18.738281 33.050781 18.882812 32.648438 L 19.578125 30.78125 L 15.945312 30.78125 C 15.765625 30.777344 15.609375 30.707031 15.484375 30.578125 C 15.355469 30.445312 15.292969 30.289062 15.292969 30.109375 C 15.292969 29.925781 15.355469 29.769531 15.484375 29.636719 C 15.609375 29.507812 15.765625 29.441406 15.945312 29.4375 L 20.078125 29.4375 L 20.582031 28.089844 L 15.945312 28.089844 C 15.765625 28.085938 15.609375 28.019531 15.484375 27.890625 C 15.355469 27.757812 15.292969 27.601562 15.292969 27.417969 C 15.292969 27.238281 15.355469 27.078125 15.484375 26.949219 C 15.609375 26.820312 15.765625 26.75 15.945312 26.746094 L 22.097656 26.746094 L 31.296875 17.488281 L 31.296875 4.140625 C 31.296875 3.960938 31.261719 3.789062 31.195312 3.625 C 31.125 3.460938 31.03125 3.316406 30.90625 3.1875 C 30.78125 3.0625 30.636719 2.964844 30.472656 2.898438 C 30.308594 2.828125 30.136719 2.796875 29.960938 2.796875 L 28.644531 2.796875 C 28.699219 3.09375 28.71875 3.394531 28.707031 3.695312 C 28.695312 4 28.652344 4.296875 28.574219 4.589844 C 28.5 4.882812 28.390625 5.164062 28.253906 5.433594 C 28.117188 5.703125 27.949219 5.953125 27.757812 6.1875 C 27.566406 6.421875 27.351562 6.628906 27.113281 6.816406 C 26.875 7 26.621094 7.15625 26.347656 7.285156 C 26.074219 7.414062 25.792969 7.511719 25.496094 7.578125 C 25.203125 7.648438 24.90625 7.679688 24.605469 7.679688 C 24.429688 7.679688 24.261719 7.644531 24.101562 7.574219 C 23.9375 7.503906 23.796875 7.40625 23.671875 7.28125 C 23.550781 7.15625 23.457031 7.011719 23.390625 6.847656 C 23.324219 6.683594 23.289062 6.515625 23.289062 6.335938 C 23.289062 6.160156 23.324219 5.992188 23.390625 5.828125 C 23.457031 5.664062 23.550781 5.519531 23.671875 5.394531 C 23.796875 5.265625 23.9375 5.171875 24.101562 5.101562 C 24.261719 5.03125 24.429688 4.996094 24.605469 4.992188 C 24.734375 4.992188 24.859375 4.972656 24.980469 4.941406 C 25.101562 4.90625 25.21875 4.855469 25.328125 4.789062 C 25.4375 4.726562 25.535156 4.648438 25.625 4.554688 C 25.714844 4.464844 25.789062 4.363281 25.851562 4.253906 C 25.914062 4.140625 25.960938 4.023438 25.996094 3.898438 C 26.027344 3.777344 26.042969 3.648438 26.039062 3.523438 C 26.039062 3.394531 26.023438 3.269531 25.988281 3.144531 C 25.953125 3.023438 25.90625 2.90625 25.839844 2.796875 L 23.304688 2.796875 C 23.359375 3.09375 23.378906 3.394531 23.367188 3.695312 C 23.355469 4 23.3125 4.296875 23.234375 4.589844 C 23.15625 4.882812 23.050781 5.164062 22.914062 5.433594 C 22.773438 5.703125 22.609375 5.953125 22.417969 6.1875 C 22.226562 6.421875 22.007812 6.628906 21.773438 6.816406 C 21.535156 7 21.277344 7.15625 21.007812 7.285156 C 20.734375 7.414062 20.449219 7.511719 20.15625 7.578125 C 19.863281 7.648438 19.566406 7.679688 19.265625 7.679688 C 19.089844 7.679688 18.921875 7.644531 18.757812 7.574219 C 18.597656 7.503906 18.457031 7.40625 18.332031 7.28125 C 18.210938 7.15625 18.113281 7.011719 18.046875 6.847656 C 17.980469 6.683594 17.949219 6.515625 17.949219 6.335938 C 17.949219 6.160156 17.980469 5.992188 18.046875 5.828125 C 18.113281 5.664062 18.210938 5.519531 18.332031 5.394531 C 18.457031 5.265625 18.597656 5.171875 18.757812 5.101562 C 18.921875 5.03125 19.089844 4.996094 19.265625 4.992188 C 19.390625 4.992188 19.515625 4.972656 19.640625 4.941406 C 19.761719 4.90625 19.878906 4.855469 19.988281 4.789062 C 20.097656 4.726562 20.195312 4.648438 20.285156 4.554688 C 20.375 4.464844 20.449219 4.363281 20.511719 4.253906 C 20.574219 4.140625 20.621094 4.023438 20.652344 3.898438 C 20.683594 3.777344 20.699219 3.648438 20.699219 3.523438 C 20.699219 3.394531 20.679688 3.269531 20.648438 3.144531 C 20.613281 3.023438 20.566406 2.90625 20.5 2.796875 L 16.628906 2.796875 C 16.683594 3.09375 16.703125 3.394531 16.691406 3.695312 C 16.679688 4 16.636719 4.296875 16.558594 4.589844 C 16.480469 4.882812 16.375 5.164062 16.238281 5.433594 C 16.097656 5.703125 15.933594 5.953125 15.742188 6.1875 C 15.550781 6.421875 15.332031 6.628906 15.09375 6.816406 C 14.855469 7 14.601562 7.15625 14.328125 7.285156 C 14.058594 7.414062 13.773438 7.511719 13.480469 7.578125 C 13.1875 7.648438 12.890625 7.679688 12.589844 7.679688 C 12.414062 7.679688 12.246094 7.644531 12.082031 7.574219 C 11.921875 7.503906 11.78125 7.40625 11.65625 7.28125 C 11.535156 7.15625 11.4375 7.011719 11.371094 6.847656 C 11.304688 6.683594 11.273438 6.515625 11.273438 6.335938 C 11.273438 6.160156 11.304688 5.992188 11.371094 5.828125 C 11.4375 5.664062 11.535156 5.519531 11.65625 5.394531 C 11.78125 5.265625 11.921875 5.171875 12.082031 5.101562 C 12.246094 5.03125 12.414062 4.996094 12.589844 4.992188 C 12.714844 4.992188 12.839844 4.972656 12.964844 4.941406 C 13.085938 4.90625 13.203125 4.855469 13.3125 4.789062 C 13.421875 4.726562 13.519531 4.648438 13.609375 4.554688 C 13.699219 4.464844 13.773438 4.363281 13.835938 4.253906 C 13.898438 4.140625 13.945312 4.023438 13.976562 3.898438 C 14.007812 3.777344 14.023438 3.648438 14.023438 3.523438 C 14.023438 3.394531 14.003906 3.269531 13.972656 3.144531 C 13.9375 3.023438 13.886719 2.90625 13.824219 2.796875 L 9.953125 2.796875 C 10.003906 3.09375 10.027344 3.394531 10.015625 3.695312 C 10.003906 4 9.960938 4.296875 9.882812 4.589844 C 9.804688 4.882812 9.699219 5.164062 9.5625 5.433594 C 9.421875 5.703125 9.257812 5.953125 9.066406 6.1875 C 8.871094 6.421875 8.65625 6.628906 8.417969 6.816406 C 8.179688 7 7.925781 7.15625 7.652344 7.285156 C 7.382812 7.414062 7.097656 7.511719 6.804688 7.578125 C 6.511719 7.648438 6.214844 7.679688 5.914062 7.679688 C 5.738281 7.679688 5.570312 7.644531 5.40625 7.574219 C 5.246094 7.503906 5.105469 7.40625 4.980469 7.28125 C 4.855469 7.15625 4.761719 7.011719 4.695312 6.847656 C 4.628906 6.683594 4.597656 6.515625 4.597656 6.335938 C 4.597656 6.160156 4.628906 5.992188 4.695312 5.828125 C 4.761719 5.664062 4.855469 5.519531 4.980469 5.394531 C 5.105469 5.265625 5.246094 5.171875 5.40625 5.101562 C 5.570312 5.03125 5.738281 4.996094 5.914062 4.992188 C 6.039062 4.992188 6.164062 4.972656 6.285156 4.941406 C 6.410156 4.90625 6.523438 4.855469 6.632812 4.789062 C 6.742188 4.726562 6.84375 4.648438 6.933594 4.554688 C 7.019531 4.464844 7.097656 4.363281 7.160156 4.253906 C 7.222656 4.140625 7.269531 4.023438 7.300781 3.898438 C 7.332031 3.777344 7.347656 3.648438 7.347656 3.523438 C 7.347656 3.394531 7.328125 3.269531 7.296875 3.144531 C 7.261719 3.023438 7.210938 2.90625 7.148438 2.796875 L 3.328125 2.796875 C 3.152344 2.796875 2.980469 2.832031 2.820312 2.898438 C 2.65625 2.96875 2.511719 3.0625 2.386719 3.191406 C 2.261719 3.316406 2.164062 3.460938 2.097656 3.625 C 2.027344 3.789062 1.996094 3.960938 1.992188 4.140625 L 1.992188 36.007812 C 1.992188 36.1875 2.027344 36.359375 2.09375 36.523438 C 2.164062 36.6875 2.257812 36.832031 2.386719 36.957031 C 2.511719 37.085938 2.65625 37.183594 2.816406 37.25 C 2.980469 37.320312 3.152344 37.351562 3.328125 37.351562 L 29.960938 37.351562 C 30.136719 37.351562 30.308594 37.320312 30.472656 37.25 C 30.636719 37.183594 30.78125 37.085938 30.90625 36.960938 C 31.03125 36.832031 31.128906 36.6875 31.195312 36.523438 C 31.261719 36.359375 31.296875 36.1875 31.296875 36.007812 L 31.296875 25.417969 L 24.417969 32.339844 Z M 15.980469 10.242188 L 26.664062 10.242188 C 26.84375 10.246094 27 10.3125 27.128906 10.441406 C 27.257812 10.574219 27.320312 10.730469 27.320312 10.914062 C 27.320312 11.097656 27.257812 11.253906 27.128906 11.386719 C 27 11.515625 26.84375 11.582031 26.664062 11.585938 L 15.980469 11.585938 C 15.796875 11.582031 15.644531 11.515625 15.515625 11.386719 C 15.386719 11.253906 15.324219 11.097656 15.324219 10.914062 C 15.324219 10.730469 15.386719 10.574219 15.515625 10.441406 C 15.644531 10.3125 15.796875 10.246094 15.980469 10.242188 Z M 15.980469 12.929688 L 20.652344 12.929688 C 20.835938 12.933594 20.992188 13 21.121094 13.128906 C 21.246094 13.261719 21.3125 13.417969 21.3125 13.601562 C 21.3125 13.785156 21.246094 13.941406 21.121094 14.074219 C 20.992188 14.203125 20.835938 14.273438 20.652344 14.273438 L 15.980469 14.273438 C 15.796875 14.269531 15.644531 14.203125 15.515625 14.074219 C 15.386719 13.941406 15.324219 13.785156 15.324219 13.601562 C 15.324219 13.417969 15.386719 13.261719 15.515625 13.128906 C 15.644531 13 15.796875 12.933594 15.980469 12.929688 Z M 15.980469 18.304688 L 26.664062 18.304688 C 26.84375 18.308594 27 18.375 27.128906 18.507812 C 27.257812 18.636719 27.320312 18.792969 27.320312 18.976562 C 27.320312 19.164062 27.257812 19.320312 27.128906 19.449219 C 27 19.582031 26.84375 19.648438 26.664062 19.652344 L 15.980469 19.652344 C 15.796875 19.648438 15.644531 19.582031 15.515625 19.449219 C 15.386719 19.320312 15.324219 19.160156 15.324219 18.980469 C 15.324219 18.796875 15.386719 18.636719 15.515625 18.507812 C 15.644531 18.375 15.796875 18.308594 15.980469 18.304688 Z M 15.980469 20.996094 L 20.652344 20.996094 C 20.835938 20.996094 20.992188 21.0625 21.121094 21.195312 C 21.246094 21.324219 21.3125 21.484375 21.3125 21.667969 C 21.3125 21.851562 21.246094 22.007812 21.121094 22.136719 C 20.992188 22.269531 20.835938 22.335938 20.652344 22.339844 L 15.980469 22.339844 C 15.796875 22.335938 15.644531 22.269531 15.515625 22.136719 C 15.386719 22.007812 15.324219 21.851562 15.324219 21.667969 C 15.324219 21.484375 15.386719 21.324219 15.515625 21.195312 C 15.644531 21.066406 15.796875 20.996094 15.980469 20.996094 Z M 11.976562 31.261719 C 11.976562 31.449219 11.910156 31.609375 11.78125 31.738281 C 11.648438 31.871094 11.492188 31.9375 11.308594 31.9375 L 6.632812 31.9375 C 6.449219 31.9375 6.292969 31.871094 6.160156 31.738281 C 6.03125 31.609375 5.964844 31.449219 5.964844 31.261719 L 5.964844 26.773438 C 5.964844 26.589844 6.03125 26.429688 6.160156 26.296875 C 6.292969 26.167969 6.449219 26.101562 6.632812 26.101562 L 11.308594 26.101562 C 11.492188 26.101562 11.648438 26.167969 11.78125 26.296875 C 11.910156 26.429688 11.976562 26.589844 11.976562 26.773438 Z M 11.976562 23.199219 C 11.976562 23.386719 11.910156 23.542969 11.78125 23.675781 C 11.648438 23.804688 11.492188 23.871094 11.308594 23.871094 L 6.632812 23.871094 C 6.449219 23.871094 6.292969 23.804688 6.160156 23.675781 C 6.03125 23.542969 5.964844 23.386719 5.964844 23.199219 L 5.964844 18.710938 C 5.964844 18.523438 6.03125 18.363281 6.160156 18.234375 C 6.292969 18.101562 6.449219 18.035156 6.632812 18.039062 L 11.308594 18.039062 C 11.492188 18.035156 11.648438 18.101562 11.78125 18.234375 C 11.910156 18.363281 11.976562 18.523438 11.976562 18.710938 Z M 11.976562 15.132812 C 11.976562 15.320312 11.910156 15.480469 11.78125 15.609375 C 11.648438 15.742188 11.492188 15.808594 11.308594 15.804688 L 6.632812 15.804688 C 6.449219 15.808594 6.292969 15.742188 6.160156 15.609375 C 6.03125 15.480469 5.964844 15.320312 5.964844 15.132812 L 5.964844 10.644531 C 5.964844 10.460938 6.03125 10.300781 6.160156 10.167969 C 6.292969 10.039062 6.449219 9.972656 6.632812 9.972656 L 11.308594 9.972656 C 11.492188 9.972656 11.648438 10.039062 11.78125 10.167969 C 11.910156 10.300781 11.976562 10.460938 11.976562 10.644531 Z M 5.246094 0.753906 C 5.246094 0.566406 5.308594 0.40625 5.441406 0.277344 C 5.570312 0.144531 5.726562 0.078125 5.914062 0.0820312 C 10.484375 0.238281 10.445312 6.871094 5.914062 7.007812 C 5.730469 7.003906 5.578125 6.9375 5.449219 6.808594 C 5.320312 6.675781 5.257812 6.519531 5.257812 6.335938 C 5.257812 6.152344 5.320312 5.996094 5.449219 5.867188 C 5.578125 5.734375 5.730469 5.667969 5.914062 5.664062 C 6.191406 5.664062 6.457031 5.605469 6.710938 5.496094 C 6.96875 5.390625 7.195312 5.234375 7.390625 5.035156 C 7.585938 4.839844 7.734375 4.609375 7.839844 4.351562 C 7.945312 4.09375 8 3.824219 8 3.542969 C 8 3.265625 7.945312 2.996094 7.839844 2.738281 C 7.734375 2.480469 7.585938 2.25 7.390625 2.050781 C 7.195312 1.855469 6.96875 1.699219 6.710938 1.589844 C 6.457031 1.484375 6.191406 1.425781 5.914062 1.425781 C 5.730469 1.425781 5.570312 1.359375 5.441406 1.226562 C 5.3125 1.097656 5.246094 0.9375 5.246094 0.753906 Z M 11.921875 0.753906 C 11.921875 0.566406 11.984375 0.40625 12.117188 0.277344 C 12.246094 0.144531 12.40625 0.078125 12.589844 0.0820312 C 17.160156 0.238281 17.121094 6.871094 12.589844 7.007812 C 12.40625 7.003906 12.253906 6.9375 12.125 6.808594 C 11.996094 6.675781 11.933594 6.519531 11.933594 6.335938 C 11.933594 6.152344 11.996094 5.996094 12.125 5.867188 C 12.253906 5.734375 12.40625 5.667969 12.589844 5.664062 C 12.867188 5.664062 13.132812 5.605469 13.390625 5.496094 C 13.644531 5.390625 13.871094 5.234375 14.066406 5.035156 C 14.261719 4.839844 14.410156 4.609375 14.515625 4.351562 C 14.621094 4.09375 14.675781 3.824219 14.675781 3.542969 C 14.675781 3.265625 14.621094 2.996094 14.515625 2.738281 C 14.410156 2.480469 14.261719 2.25 14.066406 2.050781 C 13.871094 1.855469 13.644531 1.699219 13.390625 1.589844 C 13.132812 1.484375 12.867188 1.425781 12.589844 1.425781 C 12.40625 1.425781 12.246094 1.359375 12.117188 1.226562 C 11.988281 1.097656 11.921875 0.9375 11.921875 0.753906 Z M 18.597656 0.753906 C 18.597656 0.566406 18.660156 0.40625 18.792969 0.277344 C 18.921875 0.144531 19.082031 0.078125 19.265625 0.0820312 C 23.835938 0.238281 23.796875 6.871094 19.265625 7.007812 C 19.082031 7.003906 18.929688 6.9375 18.800781 6.808594 C 18.675781 6.675781 18.609375 6.519531 18.609375 6.335938 C 18.609375 6.152344 18.675781 5.996094 18.800781 5.867188 C 18.929688 5.734375 19.082031 5.667969 19.265625 5.664062 C 19.542969 5.664062 19.808594 5.605469 20.066406 5.496094 C 20.320312 5.390625 20.546875 5.234375 20.742188 5.035156 C 20.9375 4.839844 21.085938 4.609375 21.191406 4.351562 C 21.300781 4.09375 21.351562 3.824219 21.351562 3.542969 C 21.351562 3.265625 21.300781 2.996094 21.191406 2.738281 C 21.085938 2.480469 20.9375 2.25 20.742188 2.050781 C 20.546875 1.855469 20.320312 1.699219 20.066406 1.589844 C 19.808594 1.484375 19.542969 1.425781 19.265625 1.425781 C 19.082031 1.425781 18.921875 1.359375 18.792969 1.226562 C 18.664062 1.097656 18.597656 0.9375 18.597656 0.753906 Z M 23.9375 0.753906 C 23.9375 0.566406 24.003906 0.40625 24.132812 0.277344 C 24.265625 0.144531 24.421875 0.078125 24.605469 0.0820312 C 29.175781 0.238281 29.136719 6.871094 24.605469 7.007812 C 24.425781 7.003906 24.269531 6.9375 24.140625 6.808594 C 24.015625 6.675781 23.953125 6.519531 23.953125 6.335938 C 23.953125 6.152344 24.015625 5.996094 24.140625 5.867188 C 24.269531 5.734375 24.425781 5.667969 24.605469 5.664062 C 24.882812 5.664062 25.148438 5.605469 25.40625 5.496094 C 25.660156 5.390625 25.886719 5.234375 26.082031 5.035156 C 26.277344 4.839844 26.429688 4.609375 26.535156 4.351562 C 26.640625 4.09375 26.691406 3.824219 26.691406 3.542969 C 26.691406 3.265625 26.640625 2.996094 26.535156 2.738281 C 26.429688 2.480469 26.277344 2.25 26.082031 2.050781 C 25.886719 1.855469 25.660156 1.699219 25.40625 1.589844 C 25.148438 1.484375 24.882812 1.425781 24.605469 1.425781 C 24.421875 1.425781 24.265625 1.359375 24.132812 1.226562 C 24.003906 1.097656 23.9375 0.9375 23.9375 0.753906 Z M 31.570312 18.164062 L 34.558594 21.175781 C 32.519531 23.226562 26.78125 29.007812 24.355469 31.453125 C 24.152344 31.660156 23.917969 31.8125 23.648438 31.914062 L 19.9375 33.320312 C 19.804688 33.371094 19.683594 33.347656 19.582031 33.242188 C 19.480469 33.140625 19.453125 33.019531 19.503906 32.882812 L 20.292969 30.78125 C 20.605469 30.011719 20.921875 28.660156 21.707031 28.089844 C 22.546875 27.25 30.515625 19.226562 31.570312 18.164062 Z M 36.398438 19.324219 L 35.097656 20.640625 L 32.101562 17.625 L 33.410156 16.3125 C 33.609375 16.117188 33.835938 15.964844 34.09375 15.863281 C 34.351562 15.757812 34.621094 15.703125 34.898438 15.707031 C 35.179688 15.707031 35.445312 15.761719 35.703125 15.871094 C 35.960938 15.976562 36.1875 16.128906 36.382812 16.328125 C 36.582031 16.527344 36.734375 16.757812 36.839844 17.015625 C 36.949219 17.273438 37.003906 17.542969 37.003906 17.824219 C 37.003906 18.105469 36.953125 18.375 36.847656 18.632812 C 36.746094 18.894531 36.59375 19.125 36.398438 19.324219 Z M 36.398438 19.324219 " fill-opacity="1" fill-rule="nonzero"/></g></svg>