<svg xmlns="http://www.w3.org/2000/svg" xmlns:xlink="http://www.w3.org/1999/xlink" width="50" zoomAndPan="magnify" viewBox="0 0 37.5 37.499999" height="50" preserveAspectRatio="xMidYMid meet" version="1.0"><defs><clipPath id="1f66eaaa4b"><path d="M 0.488281 28 L 9 28 L 9 34 L 0.488281 34 Z M 0.488281 28 " clip-rule="nonzero"/></clipPath><clipPath id="0c45a8adbe"><path d="M 0.488281 34 L 37.007812 34 L 37.007812 37.007812 L 0.488281 37.007812 Z M 0.488281 34 " clip-rule="nonzero"/></clipPath><clipPath id="8547616a53"><path d="M 9 0.488281 L 19 0.488281 L 19 34 L 9 34 Z M 9 0.488281 " clip-rule="nonzero"/></clipPath><clipPath id="d6db803be6"><path d="M 0.488281 13 L 9 13 L 9 27 L 0.488281 27 Z M 0.488281 13 " clip-rule="nonzero"/></clipPath><clipPath id="0617a3bcc0"><path d="M 0.488281 7 L 9 7 L 9 13 L 0.488281 13 Z M 0.488281 7 " clip-rule="nonzero"/></clipPath><clipPath id="fa4eadb607"><path d="M 27 26 L 37.007812 26 L 37.007812 34 L 27 34 Z M 27 26 " clip-rule="nonzero"/></clipPath></defs><g clip-path="url(#1f66eaaa4b)"><path fill="#100f0d" d="M 8.363281 28.050781 L 0.488281 28.050781 L 0.488281 33.300781 L 8.363281 33.300781 L 8.363281 28.050781 " fill-opacity="1" fill-rule="nonzero"/></g><path fill="#100f0d" d="M 14.269531 4.425781 C 13.183594 4.425781 12.300781 5.308594 12.300781 6.394531 L 12.300781 27.394531 C 12.300781 28.480469 13.183594 29.363281 14.269531 29.363281 C 15.355469 29.363281 16.238281 28.480469 16.238281 27.394531 L 16.238281 6.394531 C 16.238281 5.308594 15.355469 4.425781 14.269531 4.425781 " fill-opacity="1" fill-rule="nonzero"/><path fill="#100f0d" d="M 30.140625 8.941406 L 28.941406 5.257812 L 20.34375 8.121094 L 21.542969 11.808594 L 30.140625 8.941406 " fill-opacity="1" fill-rule="nonzero"/><g clip-path="url(#0c45a8adbe)"><path fill="#100f0d" d="M 37.238281 34.613281 L 0.488281 34.613281 L 0.488281 37.238281 L 37.238281 37.238281 L 37.238281 34.613281 " fill-opacity="1" fill-rule="nonzero"/></g><path fill="#100f0d" d="M 26.03125 25.625 L 34.628906 22.757812 L 31.378906 12.757812 L 22.78125 15.621094 L 26.03125 25.625 " fill-opacity="1" fill-rule="nonzero"/><path fill="#100f0d" d="M 22.375 14.375 L 30.972656 11.507812 L 30.546875 10.191406 L 21.949219 13.058594 L 22.375 14.375 " fill-opacity="1" fill-rule="nonzero"/><g clip-path="url(#8547616a53)"><path fill="#100f0d" d="M 17.550781 27.394531 C 17.550781 29.203125 16.078125 30.675781 14.269531 30.675781 C 12.460938 30.675781 10.988281 29.203125 10.988281 27.394531 L 10.988281 6.394531 C 10.988281 4.585938 12.460938 3.113281 14.269531 3.113281 C 16.078125 3.113281 17.550781 4.585938 17.550781 6.394531 Z M 18.863281 0.488281 L 9.675781 0.488281 L 9.675781 33.300781 L 18.863281 33.300781 L 18.863281 0.488281 " fill-opacity="1" fill-rule="nonzero"/></g><g clip-path="url(#d6db803be6)"><path fill="#100f0d" d="M 8.363281 13.613281 L 0.488281 13.613281 L 0.488281 26.738281 L 8.363281 26.738281 L 8.363281 13.613281 " fill-opacity="1" fill-rule="nonzero"/></g><path fill="#100f0d" d="M 26.867188 28.191406 L 35.464844 25.324219 L 35.035156 24.007812 L 26.4375 26.871094 L 26.867188 28.191406 " fill-opacity="1" fill-rule="nonzero"/><g clip-path="url(#0617a3bcc0)"><path fill="#100f0d" d="M 8.363281 7.050781 L 0.488281 7.050781 L 0.488281 12.300781 L 8.363281 12.300781 L 8.363281 7.050781 " fill-opacity="1" fill-rule="nonzero"/></g><g clip-path="url(#fa4eadb607)"><path fill="#100f0d" d="M 28.46875 33.125 L 37.066406 30.257812 L 35.871094 26.574219 L 27.273438 29.4375 L 28.46875 33.125 " fill-opacity="1" fill-rule="nonzero"/></g></svg>