<svg xmlns="http://www.w3.org/2000/svg" xmlns:xlink="http://www.w3.org/1999/xlink" width="50" zoomAndPan="magnify" viewBox="0 0 37.5 37.499999" height="50" preserveAspectRatio="xMidYMid meet" version="1.0"><defs><clipPath id="0ab4cc7a2f"><path d="M 15 3 L 36.039062 3 L 36.039062 35 L 15 35 Z M 15 3 " clip-rule="nonzero"/></clipPath><clipPath id="e27e091f07"><path d="M 16 1.476562 L 30 1.476562 L 30 8 L 16 8 Z M 16 1.476562 " clip-rule="nonzero"/></clipPath><clipPath id="4517f6861f"><path d="M 1.539062 21 L 17 21 L 17 35.976562 L 1.539062 35.976562 Z M 1.539062 21 " clip-rule="nonzero"/></clipPath></defs><path fill="#000000" d="M 12.464844 21.054688 L 12.464844 7.257812 C 12.464844 6.632812 12.972656 6.117188 13.605469 6.117188 L 15.515625 6.117188 L 15.515625 4.820312 C 15.515625 4.578125 15.714844 4.378906 15.957031 4.378906 L 20.121094 4.378906 L 20.121094 3.5625 C 20.121094 3.429688 20.128906 3.300781 20.152344 3.167969 L 11.0625 3.167969 C 10.539062 3.167969 10.113281 3.59375 10.105469 4.121094 L 10.105469 20.371094 C 10.703125 20.453125 11.292969 20.597656 11.851562 20.804688 C 12.066406 20.886719 12.265625 20.964844 12.464844 21.054688 Z M 12.464844 21.054688 " fill-opacity="1" fill-rule="nonzero"/><path fill="#000000" d="M 29.613281 28.015625 L 29.613281 29.636719 L 32.195312 27.066406 L 30.566406 27.066406 C 30.042969 27.066406 29.613281 27.492188 29.613281 28.015625 Z M 29.613281 28.015625 " fill-opacity="1" fill-rule="nonzero"/><path fill="#000000" d="M 32.804688 7.257812 C 32.804688 7.117188 32.6875 7 32.546875 7 L 30.636719 7 L 30.636719 8.152344 C 30.636719 8.394531 30.441406 8.59375 30.195312 8.59375 L 15.949219 8.59375 C 15.707031 8.59375 15.507812 8.394531 15.507812 8.152344 L 15.507812 7 L 13.597656 7 C 13.457031 7 13.339844 7.117188 13.339844 7.257812 L 13.339844 21.53125 C 16.289062 23.34375 17.800781 26.796875 17.128906 30.179688 L 28.722656 30.179688 L 28.722656 28.015625 C 28.722656 27 29.546875 26.1875 30.558594 26.179688 L 32.789062 26.179688 Z M 29.671875 12.109375 L 30.195312 12.109375 C 30.441406 12.109375 30.636719 12.308594 30.636719 12.550781 C 30.636719 12.792969 30.441406 12.992188 30.195312 12.992188 L 29.671875 12.992188 C 29.429688 12.992188 29.230469 12.792969 29.230469 12.550781 C 29.230469 12.308594 29.429688 12.109375 29.671875 12.109375 Z M 20.34375 12.109375 L 28.035156 12.109375 C 28.28125 12.109375 28.480469 12.308594 28.480469 12.550781 C 28.480469 12.792969 28.28125 12.992188 28.035156 12.992188 L 20.34375 12.992188 C 20.097656 12.992188 19.898438 12.792969 19.898438 12.550781 C 19.898438 12.308594 20.097656 12.109375 20.34375 12.109375 Z M 30.195312 20.730469 L 27.070312 20.730469 C 26.828125 20.730469 26.628906 20.53125 26.628906 20.289062 C 26.628906 20.046875 26.828125 19.847656 27.070312 19.847656 L 30.195312 19.847656 C 30.441406 19.847656 30.636719 20.046875 30.636719 20.289062 C 30.636719 20.53125 30.441406 20.730469 30.195312 20.730469 Z M 27.128906 16.742188 L 25.125 16.742188 C 24.882812 16.742188 24.683594 16.546875 24.683594 16.304688 C 24.683594 16.0625 24.882812 15.863281 25.125 15.863281 L 27.128906 15.863281 C 27.375 15.863281 27.574219 16.0625 27.574219 16.304688 C 27.574219 16.546875 27.378906 16.742188 27.128906 16.742188 Z M 15.949219 12.109375 L 18.667969 12.109375 C 18.914062 12.109375 19.113281 12.308594 19.113281 12.550781 C 19.113281 12.792969 18.914062 12.992188 18.667969 12.992188 L 15.949219 12.992188 C 15.707031 12.992188 15.507812 12.792969 15.507812 12.550781 C 15.507812 12.308594 15.707031 12.109375 15.949219 12.109375 Z M 15.949219 15.863281 L 23.726562 15.863281 C 23.96875 15.863281 24.167969 16.0625 24.167969 16.304688 C 24.167969 16.546875 23.96875 16.742188 23.726562 16.742188 L 15.949219 16.742188 C 15.707031 16.742188 15.507812 16.546875 15.507812 16.304688 C 15.507812 16.0625 15.707031 15.863281 15.949219 15.863281 Z M 15.507812 20.289062 C 15.507812 20.046875 15.707031 19.847656 15.949219 19.847656 L 25.480469 19.847656 C 25.722656 19.847656 25.921875 20.046875 25.921875 20.289062 C 25.921875 20.53125 25.722656 20.730469 25.480469 20.730469 L 15.949219 20.730469 C 15.707031 20.730469 15.507812 20.53125 15.507812 20.289062 Z M 19.78125 24.410156 L 17.378906 24.410156 C 17.136719 24.410156 16.9375 24.210938 16.9375 23.96875 C 16.9375 23.726562 17.136719 23.527344 17.378906 23.527344 L 19.78125 23.527344 C 20.023438 23.527344 20.222656 23.726562 20.222656 23.96875 C 20.222656 24.210938 20.023438 24.410156 19.78125 24.410156 Z M 30.195312 24.410156 L 21.375 24.410156 C 21.132812 24.410156 20.933594 24.210938 20.933594 23.96875 C 20.933594 23.726562 21.132812 23.527344 21.375 23.527344 L 30.195312 23.527344 C 30.441406 23.527344 30.636719 23.726562 30.636719 23.96875 C 30.636719 24.210938 30.441406 24.410156 30.195312 24.410156 Z M 30.195312 16.742188 L 28.722656 16.742188 C 28.480469 16.742188 28.28125 16.546875 28.28125 16.304688 C 28.28125 16.0625 28.480469 15.863281 28.722656 15.863281 L 30.195312 15.863281 C 30.441406 15.863281 30.636719 16.0625 30.636719 16.304688 C 30.636719 16.546875 30.441406 16.742188 30.195312 16.742188 Z M 30.195312 16.742188 " fill-opacity="1" fill-rule="nonzero"/><g clip-path="url(#0ab4cc7a2f)"><path fill="#000000" d="M 35.089844 3.167969 L 26.003906 3.167969 C 26.015625 3.300781 26.03125 3.429688 26.03125 3.5625 L 26.03125 4.378906 L 30.195312 4.378906 C 30.441406 4.378906 30.636719 4.578125 30.636719 4.820312 L 30.636719 6.125 L 32.546875 6.125 C 33.171875 6.125 33.691406 6.632812 33.691406 7.265625 L 33.691406 26.296875 C 33.691406 26.632812 33.558594 26.957031 33.3125 27.199219 L 29.804688 30.6875 C 29.71875 30.777344 29.613281 30.855469 29.503906 30.914062 C 29.394531 31.039062 29.230469 31.089844 29.070312 31.054688 C 29.007812 31.0625 28.957031 31.070312 28.898438 31.070312 L 16.90625 31.070312 C 16.5625 32.15625 15.992188 33.160156 15.242188 34.019531 L 35.082031 34.019531 C 35.605469 34.019531 36.035156 33.59375 36.039062 33.074219 L 36.039062 4.121094 C 36.039062 3.59375 35.613281 3.167969 35.089844 3.167969 Z M 35.089844 3.167969 " fill-opacity="1" fill-rule="nonzero"/></g><g clip-path="url(#e27e091f07)"><path fill="#000000" d="M 16.390625 7.710938 L 29.753906 7.710938 L 29.753906 5.257812 L 25.589844 5.257812 C 25.347656 5.257812 25.148438 5.0625 25.148438 4.820312 L 25.148438 3.5625 C 25.15625 2.425781 24.234375 1.492188 23.089844 1.484375 C 21.941406 1.476562 21.011719 2.394531 21.003906 3.542969 C 21.003906 3.546875 21.003906 3.554688 21.003906 3.5625 L 21.003906 4.820312 C 21.003906 5.0625 20.804688 5.257812 20.5625 5.257812 L 16.398438 5.257812 L 16.398438 7.710938 Z M 16.390625 7.710938 " fill-opacity="1" fill-rule="nonzero"/></g><g clip-path="url(#4517f6861f)"><path fill="#000000" d="M 11.550781 21.632812 C 7.703125 20.214844 3.425781 22.175781 2.003906 26.015625 C 1.777344 26.632812 1.628906 27.28125 1.570312 27.933594 C 1.554688 28.148438 1.539062 28.359375 1.539062 28.574219 C 1.539062 30.886719 2.625 33.066406 4.472656 34.460938 C 5.765625 35.445312 7.347656 35.972656 8.96875 35.972656 C 13.074219 35.972656 16.398438 32.65625 16.398438 28.574219 C 16.40625 25.472656 14.46875 22.707031 11.550781 21.632812 Z M 8.976562 33.769531 C 8.535156 33.769531 8.179688 33.417969 8.179688 32.976562 C 8.179688 32.539062 8.535156 32.183594 8.976562 32.183594 C 9.417969 32.183594 9.773438 32.539062 9.773438 32.976562 C 9.773438 33.417969 9.417969 33.769531 8.976562 33.769531 Z M 11.542969 26.121094 C 11.484375 26.964844 11.003906 27.726562 10.265625 28.152344 C 9.738281 28.46875 9.414062 29.042969 9.417969 29.660156 L 9.417969 30.578125 C 9.417969 30.820312 9.21875 31.019531 8.976562 31.019531 C 8.734375 31.019531 8.535156 30.820312 8.535156 30.578125 L 8.535156 29.660156 C 8.527344 28.726562 9.023438 27.867188 9.816406 27.390625 C 10.621094 26.929688 10.894531 25.898438 10.429688 25.097656 C 9.964844 24.300781 8.933594 24.027344 8.128906 24.488281 C 7.605469 24.792969 7.289062 25.34375 7.289062 25.945312 C 7.289062 26.1875 7.089844 26.382812 6.847656 26.382812 C 6.605469 26.382812 6.40625 26.1875 6.40625 25.945312 C 6.40625 25.230469 6.699219 24.554688 7.222656 24.070312 C 7.746094 23.585938 8.445312 23.335938 9.152344 23.390625 C 10.578125 23.492188 11.636719 24.710938 11.542969 26.121094 Z M 11.542969 26.121094 " fill-opacity="1" fill-rule="nonzero"/></g><path fill="#000000" d="M 9.066406 32.976562 C 9.066406 33.035156 9.035156 33.066406 8.976562 33.066406 C 8.917969 33.066406 8.890625 33.035156 8.890625 32.976562 C 8.890625 32.917969 8.917969 32.890625 8.976562 32.890625 C 9.035156 32.890625 9.066406 32.917969 9.066406 32.976562 Z M 9.066406 32.976562 " fill-opacity="1" fill-rule="nonzero"/></svg>