<svg xmlns="http://www.w3.org/2000/svg" xmlns:xlink="http://www.w3.org/1999/xlink" width="50" zoomAndPan="magnify" viewBox="0 0 37.5 37.499999" height="50" preserveAspectRatio="xMidYMid meet" version="1.0"><defs><clipPath id="b6ff15cef4"><path d="M 15 27 L 19 27 L 19 36.695312 L 15 36.695312 Z M 15 27 " clip-rule="nonzero"/></clipPath><clipPath id="a00178b22f"><path d="M 19 27 L 23 27 L 23 36.695312 L 19 36.695312 Z M 19 27 " clip-rule="nonzero"/></clipPath><clipPath id="9f87a16851"><path d="M 19 0.695312 L 25 0.695312 L 25 7 L 19 7 Z M 19 0.695312 " clip-rule="nonzero"/></clipPath><clipPath id="6bebf14ba5"><path d="M 10 7 L 27 7 L 27 36.695312 L 10 36.695312 Z M 10 7 " clip-rule="nonzero"/></clipPath><clipPath id="ab6115498a"><path d="M 21 9 L 37.007812 9 L 37.007812 17 L 21 17 Z M 21 9 " clip-rule="nonzero"/></clipPath></defs><path fill="#000000" d="M 7.734375 16.773438 C 6.90625 16.773438 5.96875 16.773438 5.027344 16.773438 C 4.574219 16.769531 4.121094 16.769531 3.675781 16.769531 L 3.675781 24.3125 L 10.214844 24.3125 L 10.214844 16.761719 C 9.917969 16.773438 9.476562 16.773438 8.804688 16.773438 C 8.480469 16.773438 8.121094 16.773438 7.734375 16.773438 Z M 8.597656 22.816406 C 8.597656 22.984375 8.460938 23.121094 8.289062 23.121094 L 5.5 23.121094 C 5.332031 23.121094 5.191406 22.984375 5.191406 22.816406 L 5.191406 18.503906 C 5.191406 18.332031 5.332031 18.195312 5.5 18.195312 L 8.289062 18.195312 C 8.460938 18.195312 8.597656 18.332031 8.597656 18.503906 Z M 8.597656 22.816406 " fill-opacity="1" fill-rule="nonzero"/><path fill="#000000" d="M 5.8125 20.128906 L 7.980469 20.128906 L 7.980469 22.507812 L 5.8125 22.507812 Z M 5.8125 20.128906 " fill-opacity="1" fill-rule="nonzero"/><path fill="#000000" d="M 5.8125 18.8125 L 7.980469 18.8125 L 7.980469 19.515625 L 5.8125 19.515625 Z M 5.8125 18.8125 " fill-opacity="1" fill-rule="nonzero"/><g clip-path="url(#b6ff15cef4)"><path fill="#000000" d="M 15.027344 27.285156 L 18.4375 27.285156 L 18.4375 36.699219 L 15.027344 36.699219 Z M 15.027344 27.285156 " fill-opacity="1" fill-rule="nonzero"/></g><path fill="#000000" d="M 15.027344 24.09375 L 22.464844 24.09375 L 22.464844 26.667969 L 15.027344 26.667969 Z M 15.027344 24.09375 " fill-opacity="1" fill-rule="nonzero"/><path fill="#000000" d="M 1.9375 24.925781 L 10.214844 24.925781 L 10.214844 27.5 L 1.9375 27.5 Z M 1.9375 24.925781 " fill-opacity="1" fill-rule="nonzero"/><g clip-path="url(#a00178b22f)"><path fill="#000000" d="M 19.058594 27.285156 L 22.464844 27.285156 L 22.464844 36.699219 L 19.058594 36.699219 Z M 19.058594 27.285156 " fill-opacity="1" fill-rule="nonzero"/></g><path fill="#000000" d="M 3.945312 9.785156 L 0.0859375 16.144531 C 1.113281 16.148438 2.242188 16.152344 3.367188 16.152344 C 6.570312 16.160156 9.722656 16.164062 10.371094 16.148438 L 15.742188 9.785156 Z M 3.945312 9.785156 " fill-opacity="1" fill-rule="nonzero"/><path fill="#000000" d="M 6.972656 31.527344 L 9.144531 31.527344 L 9.144531 33.902344 L 6.972656 33.902344 Z M 6.972656 31.527344 " fill-opacity="1" fill-rule="nonzero"/><path fill="#000000" d="M 6.972656 30.207031 L 9.144531 30.207031 L 9.144531 30.910156 L 6.972656 30.910156 Z M 6.972656 30.207031 " fill-opacity="1" fill-rule="nonzero"/><g clip-path="url(#9f87a16851)"><path fill="#000000" d="M 22.722656 5.96875 C 23.515625 6.101562 24.292969 5.863281 24.632812 5.738281 L 24.632812 2.328125 C 24.171875 2.476562 23.410156 2.648438 22.617188 2.515625 C 22.066406 2.417969 21.597656 2.066406 21.101562 1.695312 C 20.503906 1.246094 19.886719 0.789062 19.054688 0.695312 L 19.054688 4.136719 C 20.085938 4.230469 20.820312 4.773438 21.472656 5.261719 C 21.925781 5.605469 22.320312 5.898438 22.722656 5.96875 Z M 22.722656 5.96875 " fill-opacity="1" fill-rule="nonzero"/></g><path fill="#000000" d="M 1.9375 35.902344 L 10.214844 35.902344 L 10.214844 28.113281 L 1.9375 28.113281 Z M 6.355469 29.898438 C 6.355469 29.730469 6.492188 29.59375 6.664062 29.59375 L 9.453125 29.59375 C 9.625 29.59375 9.761719 29.730469 9.761719 29.898438 L 9.761719 34.210938 C 9.761719 34.382812 9.625 34.519531 9.453125 34.519531 L 6.664062 34.519531 C 6.492188 34.519531 6.355469 34.382812 6.355469 34.210938 Z M 2.40625 29.898438 C 2.40625 29.730469 2.542969 29.59375 2.714844 29.59375 L 5.5 29.59375 C 5.671875 29.59375 5.8125 29.730469 5.8125 29.898438 L 5.8125 34.210938 C 5.8125 34.382812 5.671875 34.519531 5.5 34.519531 L 2.714844 34.519531 C 2.542969 34.519531 2.40625 34.382812 2.40625 34.210938 Z M 2.40625 29.898438 " fill-opacity="1" fill-rule="nonzero"/><path fill="#000000" d="M 3.023438 31.527344 L 5.191406 31.527344 L 5.191406 33.902344 L 3.023438 33.902344 Z M 3.023438 31.527344 " fill-opacity="1" fill-rule="nonzero"/><path fill="#000000" d="M 15.453125 16.777344 C 15.453125 18.578125 16.929688 20.042969 18.746094 20.042969 C 20.5625 20.042969 22.039062 18.578125 22.039062 16.777344 C 22.039062 14.972656 20.5625 13.507812 18.746094 13.507812 C 16.929688 13.507812 15.453125 14.972656 15.453125 16.777344 Z M 19.054688 14.273438 L 19.054688 16.777344 C 19.054688 16.863281 19.019531 16.945312 18.957031 17 L 17.835938 18.03125 C 17.777344 18.085938 17.699219 18.113281 17.625 18.113281 C 17.539062 18.113281 17.457031 18.082031 17.398438 18.015625 C 17.28125 17.890625 17.289062 17.695312 17.414062 17.582031 L 18.433594 16.640625 L 18.433594 14.273438 C 18.433594 14.101562 18.574219 13.964844 18.746094 13.964844 C 18.917969 13.964844 19.054688 14.101562 19.054688 14.273438 Z M 19.054688 14.273438 " fill-opacity="1" fill-rule="nonzero"/><path fill="#000000" d="M 3.023438 30.207031 L 5.191406 30.207031 L 5.191406 30.910156 L 3.023438 30.910156 Z M 3.023438 30.207031 " fill-opacity="1" fill-rule="nonzero"/><path fill="#000000" d="M 28.347656 31.527344 L 30.515625 31.527344 L 30.515625 33.902344 L 28.347656 33.902344 Z M 28.347656 31.527344 " fill-opacity="1" fill-rule="nonzero"/><path fill="#000000" d="M 27.277344 24.925781 L 35.554688 24.925781 L 35.554688 27.5 L 27.277344 27.5 Z M 27.277344 24.925781 " fill-opacity="1" fill-rule="nonzero"/><path fill="#000000" d="M 27.277344 35.902344 L 35.554688 35.902344 L 35.554688 28.113281 L 27.277344 28.113281 Z M 31.679688 29.898438 C 31.679688 29.730469 31.816406 29.59375 31.988281 29.59375 L 34.773438 29.59375 C 34.945312 29.59375 35.085938 29.730469 35.085938 29.898438 L 35.085938 34.210938 C 35.085938 34.382812 34.945312 34.519531 34.773438 34.519531 L 31.988281 34.519531 C 31.816406 34.519531 31.679688 34.382812 31.679688 34.210938 Z M 27.726562 29.898438 C 27.726562 29.730469 27.867188 29.59375 28.035156 29.59375 L 30.824219 29.59375 C 30.996094 29.59375 31.132812 29.730469 31.132812 29.898438 L 31.132812 34.210938 C 31.132812 34.382812 30.996094 34.519531 30.824219 34.519531 L 28.035156 34.519531 C 27.867188 34.519531 27.726562 34.382812 27.726562 34.210938 Z M 27.726562 29.898438 " fill-opacity="1" fill-rule="nonzero"/><path fill="#000000" d="M 28.347656 30.207031 L 30.515625 30.207031 L 30.515625 30.910156 L 28.347656 30.910156 Z M 28.347656 30.207031 " fill-opacity="1" fill-rule="nonzero"/><path fill="#000000" d="M 32.296875 31.527344 L 34.464844 31.527344 L 34.464844 33.902344 L 32.296875 33.902344 Z M 32.296875 31.527344 " fill-opacity="1" fill-rule="nonzero"/><path fill="#000000" d="M 32.296875 30.207031 L 34.464844 30.207031 L 34.464844 30.910156 L 32.296875 30.910156 Z M 32.296875 30.207031 " fill-opacity="1" fill-rule="nonzero"/><path fill="#000000" d="M 28.683594 16.773438 C 28.011719 16.773438 27.570312 16.773438 27.277344 16.761719 L 27.277344 24.3125 L 33.8125 24.3125 L 33.8125 16.769531 C 33.371094 16.769531 32.917969 16.769531 32.460938 16.773438 C 31.523438 16.773438 30.582031 16.773438 29.753906 16.773438 C 29.371094 16.773438 29.007812 16.773438 28.683594 16.773438 Z M 32.296875 18.503906 L 32.296875 22.816406 C 32.296875 22.984375 32.160156 23.121094 31.988281 23.121094 L 29.199219 23.121094 C 29.027344 23.121094 28.890625 22.984375 28.890625 22.816406 L 28.890625 18.503906 C 28.890625 18.332031 29.027344 18.195312 29.199219 18.195312 L 31.988281 18.195312 C 32.160156 18.195312 32.296875 18.332031 32.296875 18.503906 Z M 32.296875 18.503906 " fill-opacity="1" fill-rule="nonzero"/><g clip-path="url(#6bebf14ba5)"><path fill="#000000" d="M 10.832031 16.5625 L 10.832031 36.699219 L 14.40625 36.699219 L 14.40625 23.789062 C 14.40625 23.617188 14.542969 23.480469 14.714844 23.480469 L 22.773438 23.480469 C 22.945312 23.480469 23.082031 23.617188 23.082031 23.789062 L 23.082031 36.699219 L 26.65625 36.699219 L 26.65625 16.5625 L 18.746094 7.1875 Z M 22.65625 16.777344 C 22.65625 18.917969 20.902344 20.660156 18.746094 20.660156 C 16.585938 20.660156 14.832031 18.917969 14.832031 16.777344 C 14.832031 14.632812 16.585938 12.890625 18.746094 12.890625 C 20.902344 12.890625 22.65625 14.632812 22.65625 16.777344 Z M 22.65625 16.777344 " fill-opacity="1" fill-rule="nonzero"/></g><path fill="#000000" d="M 29.507812 20.128906 L 31.679688 20.128906 L 31.679688 22.507812 L 29.507812 22.507812 Z M 29.507812 20.128906 " fill-opacity="1" fill-rule="nonzero"/><g clip-path="url(#ab6115498a)"><path fill="#000000" d="M 34.121094 16.152344 C 34.121094 16.152344 34.121094 16.152344 34.125 16.152344 C 35.246094 16.152344 36.375 16.148438 37.402344 16.144531 L 33.542969 9.785156 L 21.746094 9.785156 L 27.117188 16.148438 C 27.769531 16.164062 30.917969 16.160156 34.121094 16.152344 Z M 34.121094 16.152344 " fill-opacity="1" fill-rule="nonzero"/></g><path fill="#000000" d="M 29.507812 18.8125 L 31.679688 18.8125 L 31.679688 19.515625 L 29.507812 19.515625 Z M 29.507812 18.8125 " fill-opacity="1" fill-rule="nonzero"/></svg>