<svg xmlns="http://www.w3.org/2000/svg" xmlns:xlink="http://www.w3.org/1999/xlink" width="50" zoomAndPan="magnify" viewBox="0 0 37.5 37.499999" height="50" preserveAspectRatio="xMidYMid meet" version="1.0"><defs><clipPath id="e88e0369da"><path d="M 2 0.996094 L 36 0.996094 L 36 23 L 2 23 Z M 2 0.996094 " clip-rule="nonzero"/></clipPath><clipPath id="75958954c1"><path d="M 0.523438 21.117188 L 37.007812 21.117188 L 37.007812 26.417969 L 0.523438 26.417969 Z M 0.523438 21.117188 " clip-rule="nonzero"/></clipPath><clipPath id="6545b0121f"><path d="M 8.785156 27.597656 L 28.992188 27.597656 L 28.992188 36.246094 L 8.785156 36.246094 Z M 8.785156 27.597656 " clip-rule="nonzero"/></clipPath><clipPath id="337aa6c499"><path d="M 6.792969 29.660156 L 30.984375 29.660156 L 30.984375 36.246094 L 6.792969 36.246094 Z M 6.792969 29.660156 " clip-rule="nonzero"/></clipPath></defs><g clip-path="url(#e88e0369da)"><path fill="#000000" d="M 3.542969 20.789062 L 34.195312 20.789062 L 34.195312 3.113281 C 34.195312 2.777344 33.917969 2.503906 33.578125 2.503906 L 4.160156 2.503906 C 3.820312 2.503906 3.542969 2.777344 3.542969 3.113281 Z M 34.960938 22.296875 L 2.777344 22.296875 C 2.355469 22.296875 2.011719 21.957031 2.011719 21.542969 L 2.011719 3.113281 C 2.011719 1.945312 2.976562 0.996094 4.160156 0.996094 L 33.578125 0.996094 C 34.761719 0.996094 35.726562 1.945312 35.726562 3.113281 L 35.726562 21.542969 C 35.726562 21.957031 35.382812 22.296875 34.960938 22.296875 " fill-opacity="1" fill-rule="evenodd"/></g><g clip-path="url(#75958954c1)"><path fill="#000000" d="M 22.300781 24.136719 C 22.511719 24.136719 22.683594 23.96875 22.683594 23.761719 C 22.683594 23.550781 22.511719 23.382812 22.300781 23.382812 L 15.4375 23.382812 C 15.226562 23.382812 15.054688 23.550781 15.054688 23.761719 C 15.054688 23.96875 15.226562 24.136719 15.4375 24.136719 Z M 34.066406 26.355469 L 3.671875 26.355469 C 1.9375 26.355469 0.523438 24.960938 0.523438 23.25 L 0.523438 21.542969 C 0.523438 21.335938 0.691406 21.164062 0.90625 21.164062 L 36.832031 21.164062 C 37.042969 21.164062 37.214844 21.335938 37.214844 21.542969 L 37.214844 23.25 C 37.214844 24.960938 35.800781 26.355469 34.066406 26.355469 " fill-opacity="1" fill-rule="evenodd"/></g><path fill="#000000" d="M 5.652344 18.757812 L 32.085938 18.757812 L 32.085938 4.535156 L 5.652344 4.535156 Z M 33.183594 20.214844 L 4.554688 20.214844 C 4.34375 20.214844 4.171875 20.046875 4.171875 19.839844 L 4.171875 3.453125 C 4.171875 3.246094 4.34375 3.074219 4.554688 3.074219 L 33.183594 3.074219 C 33.394531 3.074219 33.566406 3.246094 33.566406 3.453125 L 33.566406 19.839844 C 33.566406 20.046875 33.394531 20.214844 33.183594 20.214844 " fill-opacity="1" fill-rule="evenodd"/><path fill="#000000" d="M 18.773438 6.546875 C 17.285156 6.609375 16.171875 7.019531 16.171875 8.535156 C 16.171875 10.167969 17.253906 11.234375 18.90625 11.234375 C 20.558594 11.234375 21.667969 10.140625 21.667969 8.511719 C 21.667969 6.925781 20.109375 6.488281 18.773438 6.546875 Z M 18.867188 12.269531 C 16.792969 12.269531 15.105469 10.605469 15.105469 8.5625 C 15.105469 6.515625 16.792969 4.851562 18.867188 4.851562 C 20.941406 4.851562 22.628906 6.515625 22.628906 8.5625 C 22.628906 10.605469 20.941406 12.269531 18.867188 12.269531 " fill-opacity="1" fill-rule="evenodd"/><path fill="#000000" d="M 24.546875 20.214844 L 13.191406 20.214844 C 12.980469 20.214844 12.808594 20.046875 12.808594 19.839844 L 12.808594 16.390625 C 12.808594 14.46875 14.390625 12.835938 16.480469 12.59375 C 16.578125 12.582031 16.679688 12.609375 16.757812 12.667969 C 17.347656 13.109375 18.097656 13.351562 18.867188 13.351562 C 19.640625 13.351562 20.390625 13.109375 20.980469 12.667969 C 21.058594 12.609375 21.15625 12.582031 21.257812 12.59375 C 23.347656 12.835938 24.929688 14.46875 24.929688 16.390625 L 24.929688 19.839844 C 24.929688 20.046875 24.757812 20.214844 24.546875 20.214844 " fill-opacity="1" fill-rule="evenodd"/><g clip-path="url(#6545b0121f)"><path fill="#000000" d="M 18.488281 36.246094 L 18.488281 29.382812 C 17.453125 28.769531 15.183594 27.683594 12.074219 27.683594 C 11.097656 27.683594 10.101562 27.796875 9.121094 28.011719 C 8.945312 28.050781 8.820312 28.203125 8.820312 28.378906 L 8.820312 35.867188 C 8.820312 36.078125 8.992188 36.246094 9.203125 36.246094 Z M 20.570312 32.480469 C 20.679688 32.480469 20.785156 32.4375 20.863281 32.347656 C 22.445312 30.503906 26.753906 30.914062 26.796875 30.917969 C 27.003906 30.9375 27.191406 30.789062 27.214844 30.582031 C 27.234375 30.375 27.082031 30.1875 26.871094 30.167969 C 26.679688 30.148438 22.121094 29.714844 20.277344 31.863281 C 20.140625 32.019531 20.160156 32.257812 20.324219 32.394531 C 20.394531 32.453125 20.484375 32.480469 20.570312 32.480469 Z M 20.570312 34.808594 C 20.679688 34.808594 20.785156 34.765625 20.863281 34.675781 C 22.445312 32.832031 26.753906 33.242188 26.796875 33.246094 C 27.003906 33.265625 27.191406 33.117188 27.214844 32.910156 C 27.234375 32.703125 27.082031 32.515625 26.871094 32.496094 C 26.679688 32.476562 22.121094 32.042969 20.277344 34.1875 C 20.140625 34.347656 20.160156 34.585938 20.324219 34.71875 C 20.394531 34.78125 20.484375 34.808594 20.570312 34.808594 Z M 17.167969 32.480469 C 17.253906 32.480469 17.34375 32.453125 17.414062 32.394531 C 17.574219 32.257812 17.597656 32.019531 17.460938 31.863281 C 15.617188 29.714844 11.058594 30.148438 10.867188 30.167969 C 10.65625 30.1875 10.503906 30.375 10.523438 30.582031 C 10.546875 30.789062 10.730469 30.941406 10.941406 30.917969 C 10.984375 30.914062 15.292969 30.503906 16.875 32.347656 C 16.953125 32.4375 17.058594 32.480469 17.167969 32.480469 Z M 17.167969 34.808594 C 17.058594 34.808594 16.953125 34.765625 16.875 34.675781 C 15.292969 32.832031 10.984375 33.242188 10.941406 33.246094 C 10.730469 33.265625 10.546875 33.117188 10.523438 32.910156 C 10.503906 32.703125 10.65625 32.515625 10.867188 32.496094 C 11.058594 32.476562 15.617188 32.042969 17.460938 34.1875 C 17.597656 34.347656 17.574219 34.585938 17.414062 34.71875 C 17.34375 34.78125 17.253906 34.808594 17.167969 34.808594 Z M 28.535156 36.246094 L 19.25 36.246094 L 19.25 29.382812 C 20.285156 28.769531 22.554688 27.683594 25.664062 27.683594 C 26.640625 27.683594 27.636719 27.796875 28.617188 28.011719 C 28.792969 28.050781 28.917969 28.203125 28.917969 28.378906 L 28.917969 35.867188 C 28.917969 36.078125 28.746094 36.246094 28.535156 36.246094 " fill-opacity="1" fill-rule="evenodd"/></g><g clip-path="url(#337aa6c499)"><path fill="#000000" d="M 8.121094 36.246094 L 7.183594 36.246094 C 6.972656 36.246094 6.800781 36.078125 6.800781 35.867188 L 6.800781 30.085938 C 6.800781 29.875 6.972656 29.707031 7.183594 29.707031 L 8.054688 29.707031 L 8.054688 35.867188 C 8.054688 36 8.078125 36.128906 8.121094 36.246094 Z M 30.554688 36.246094 L 29.617188 36.246094 C 29.660156 36.128906 29.679688 36 29.679688 35.867188 L 29.679688 29.707031 L 30.554688 29.707031 C 30.765625 29.707031 30.9375 29.875 30.9375 30.085938 L 30.9375 35.867188 C 30.9375 36.078125 30.765625 36.246094 30.554688 36.246094 " fill-opacity="1" fill-rule="evenodd"/></g></svg>