<svg xmlns="http://www.w3.org/2000/svg" xmlns:xlink="http://www.w3.org/1999/xlink" width="50" zoomAndPan="magnify" viewBox="0 0 37.5 37.499999" height="50" preserveAspectRatio="xMidYMid meet" version="1.0"><defs><clipPath id="869f6f1837"><path d="M 8 1.214844 L 12 1.214844 L 12 24 L 8 24 Z M 8 1.214844 " clip-rule="nonzero"/></clipPath><clipPath id="c0244e2110"><path d="M 1.195312 25 L 31 25 L 31 36.464844 L 1.195312 36.464844 Z M 1.195312 25 " clip-rule="nonzero"/></clipPath><clipPath id="ad6ed6d859"><path d="M 12 1.214844 L 36.445312 1.214844 L 36.445312 36.464844 L 12 36.464844 Z M 12 1.214844 " clip-rule="nonzero"/></clipPath></defs><g clip-path="url(#869f6f1837)"><path fill="#000000" d="M 11.335938 1.21875 C 9.605469 1.222656 8.203125 2.628906 8.199219 4.363281 L 8.199219 23.847656 L 11.335938 23.847656 Z M 11.335938 1.21875 " fill-opacity="1" fill-rule="nonzero"/></g><path fill="#000000" d="M 6.945312 27.617188 C 5.242188 27.621094 3.851562 28.976562 3.804688 30.679688 C 3.789062 31.5 4.113281 32.296875 4.695312 32.878906 C 5.328125 33.527344 6.195312 33.898438 7.101562 33.902344 L 28.128906 33.902344 C 27.496094 31.855469 27.496094 29.664062 28.128906 27.617188 Z M 6.945312 28.875 L 17.613281 28.875 C 17.960938 28.875 18.242188 29.15625 18.242188 29.503906 C 18.242188 29.851562 17.960938 30.132812 17.613281 30.132812 L 6.945312 30.132812 C 6.597656 30.132812 6.316406 29.851562 6.316406 29.503906 C 6.316406 29.15625 6.597656 28.875 6.945312 28.875 Z M 11.964844 32.644531 L 6.945312 32.644531 C 6.597656 32.644531 6.316406 32.363281 6.316406 32.015625 C 6.316406 31.667969 6.597656 31.386719 6.945312 31.386719 L 11.964844 31.386719 C 12.3125 31.386719 12.59375 31.667969 12.59375 32.015625 C 12.59375 32.363281 12.3125 32.644531 11.964844 32.644531 Z M 25.144531 32.644531 L 14.476562 32.644531 C 14.128906 32.644531 13.847656 32.363281 13.847656 32.015625 C 13.847656 31.667969 14.128906 31.386719 14.476562 31.386719 L 25.144531 31.386719 C 25.492188 31.386719 25.773438 31.667969 25.773438 32.015625 C 25.773438 32.363281 25.492188 32.644531 25.144531 32.644531 Z M 25.144531 30.132812 L 20.125 30.132812 C 19.777344 30.132812 19.496094 29.851562 19.496094 29.503906 C 19.496094 29.15625 19.777344 28.875 20.125 28.875 L 25.144531 28.875 C 25.492188 28.875 25.773438 29.15625 25.773438 29.503906 C 25.773438 29.851562 25.492188 30.132812 25.144531 30.132812 Z M 25.144531 30.132812 " fill-opacity="1" fill-rule="nonzero"/><g clip-path="url(#c0244e2110)"><path fill="#000000" d="M 30.167969 35.160156 L 7.101562 35.160156 C 5.855469 35.152344 4.664062 34.648438 3.796875 33.753906 C 2.976562 32.929688 2.527344 31.808594 2.550781 30.644531 C 2.613281 28.261719 4.5625 26.363281 6.945312 26.359375 L 30.167969 26.359375 C 30.515625 26.359375 30.796875 26.078125 30.796875 25.730469 C 30.796875 25.382812 30.515625 25.101562 30.167969 25.101562 L 6.945312 25.101562 C 5.375 25.101562 3.875 25.757812 2.808594 26.90625 C 1.738281 28.054688 1.195312 29.601562 1.308594 31.167969 C 1.582031 34.171875 4.125 36.460938 7.140625 36.417969 L 30.167969 36.417969 C 30.515625 36.417969 30.796875 36.136719 30.796875 35.789062 C 30.796875 35.441406 30.515625 35.160156 30.167969 35.160156 Z M 30.167969 35.160156 " fill-opacity="1" fill-rule="nonzero"/></g><path fill="#000000" d="M 16.359375 11.277344 L 32.679688 11.277344 L 32.679688 4.992188 L 16.359375 4.992188 Z M 16.359375 11.277344 " fill-opacity="1" fill-rule="nonzero"/><g clip-path="url(#ad6ed6d859)"><path fill="#000000" d="M 35.816406 1.21875 L 12.59375 1.21875 L 12.59375 23.847656 L 30.167969 23.847656 C 31.207031 23.847656 32.050781 24.691406 32.050781 25.730469 C 32.050781 26.773438 31.207031 27.617188 30.167969 27.617188 L 29.476562 27.617188 C 28.726562 29.644531 28.726562 31.875 29.476562 33.902344 L 30.167969 33.902344 C 31.207031 33.902344 32.050781 34.746094 32.050781 35.789062 C 32.046875 36.003906 32.007812 36.214844 31.933594 36.417969 L 35.816406 36.417969 C 36.164062 36.417969 36.445312 36.136719 36.445312 35.789062 L 36.445312 1.847656 C 36.445312 1.5 36.164062 1.21875 35.816406 1.21875 Z M 28.910156 18.816406 L 20.125 18.816406 C 19.777344 18.816406 19.496094 18.535156 19.496094 18.191406 C 19.496094 17.84375 19.777344 17.5625 20.125 17.5625 L 28.910156 17.5625 C 29.257812 17.5625 29.539062 17.84375 29.539062 18.191406 C 29.539062 18.535156 29.257812 18.816406 28.910156 18.816406 Z M 32.050781 15.675781 L 16.988281 15.675781 C 16.640625 15.675781 16.359375 15.394531 16.359375 15.046875 C 16.359375 14.699219 16.640625 14.417969 16.988281 14.417969 L 32.050781 14.417969 C 32.398438 14.417969 32.679688 14.699219 32.679688 15.046875 C 32.679688 15.394531 32.398438 15.675781 32.050781 15.675781 Z M 33.933594 11.277344 C 33.933594 11.96875 33.371094 12.53125 32.679688 12.53125 L 16.359375 12.53125 C 15.664062 12.53125 15.101562 11.96875 15.101562 11.277344 L 15.101562 4.992188 C 15.101562 4.296875 15.664062 3.734375 16.359375 3.734375 L 32.679688 3.734375 C 33.371094 3.734375 33.933594 4.296875 33.933594 4.992188 Z M 33.933594 11.277344 " fill-opacity="1" fill-rule="nonzero"/></g></svg>